<svg width="86" height="97" viewBox="0 0 86 97" fill="none" xmlns="http://www.w3.org/2000/svg">
<circle cx="39" cy="47" r="39" fill="#FF5200"/>
<circle cx="81.4191" cy="30.4002" r="3.55483" transform="rotate(20.6735 81.4191 30.4002)" fill="#FF5200"/>
<circle cx="75.6153" cy="23.0996" r="2.24516" transform="rotate(20.6735 75.6153 23.0996)" fill="#FF5200"/>
<ellipse cx="19" cy="5.5" rx="6" ry="5.5" fill="#FF5200"/>
<circle cx="9.5" cy="14.5" r="3.5" fill="#FF5200"/>
<path d="M71 96.9075H22.1633V97H71V96.9075Z" fill="#3C354C"/>
<path d="M43.5228 57.9916L41.942 57.0672C41.942 57.0672 38.1214 56.5367 38.6483 54.6796C39.1752 52.8225 41.8107 54.6796 41.8107 54.6796L43.5228 55.8656V57.9916Z" fill="#FFC1C7"/>
<path opacity="0.1" d="M43.5228 57.9916L41.942 57.0672C41.942 57.0672 38.1214 56.5367 38.6483 54.6796C39.1752 52.8225 41.8107 54.6796 41.8107 54.6796L43.5228 55.8656V57.9916Z" fill="black"/>
<path d="M49.3192 48.5732C49.3192 48.5732 45.4994 51.3592 45.4994 50.4302C45.4994 49.8756 44.833 48.1628 44.3005 46.888C43.948 46.0432 43.658 45.3896 43.658 45.3896L47.6053 44.3285C47.4839 44.9714 47.4989 45.633 47.6494 46.2696C47.8822 47.2293 48.4824 48.0574 49.3192 48.5732Z" fill="#FFC1C7"/>
<path d="M41.418 72.2214C41.418 72.2214 38.3886 78.9868 39.4415 81.5066C39.4415 81.5066 36.1487 91.5887 35.0949 91.9862C34.041 92.3837 37.7295 93.0474 37.7295 93.0474C37.7295 93.0474 42.0743 87.2109 42.3359 82.5678C42.5976 77.9247 47.3435 73.1513 47.3435 73.1513L41.418 72.2214Z" fill="#FFC1C7"/>
<path d="M48.3948 74.9704C48.3948 74.9704 50.1068 80.5425 52.3467 82.1343C52.3467 82.1343 56.9577 89.8278 56.294 92.2154C56.294 92.2154 58.9286 92.6138 59.0608 92.2154C59.0608 92.2154 57.8748 83.8582 54.9767 80.5425C52.0786 77.2268 53.4033 73.2437 53.4033 73.2437L48.3948 74.9704Z" fill="#FFC1C7"/>
<path d="M36.8044 92.1193C36.8044 92.1193 35.2236 90.7929 34.0385 91.854C32.8534 92.9152 30.7448 92.6499 29.164 92.1193C27.5832 91.5887 27.7154 92.9152 31.4039 94.6391C35.0923 96.3631 37.2 96.7652 37.2 96.7652C37.2 96.7652 37.7269 94.6391 37.7269 94.1123C37.7269 93.5854 38.0547 92.5898 38.0547 92.5898L36.8044 92.1193Z" fill="#FF004C"/>
<path d="M57.6184 91.9502C57.6184 91.9502 56.0377 91.0258 55.7742 92.7461C55.5108 94.4663 51.6901 95.5321 51.6901 95.5321C51.6901 95.5321 49.8459 97.2561 55.5108 96.7227C61.1756 96.1893 60.78 95.1309 60.78 95.1309L58.9862 91.6978L57.6184 91.9502Z" fill="#FF004C"/>
<path d="M43.523 66.0835C43.523 66.0835 39.4389 71.92 41.0197 72.5827C42.6005 73.2455 42.4692 71.5216 44.049 73.3786C45.6289 75.2357 49.7139 74.303 50.2409 73.9092C50.7678 73.5154 52.0851 71.7832 53.1389 71.92C54.1928 72.0568 51.4241 65.1545 51.4241 65.1545L43.523 66.0835Z" fill="#3F3D56"/>
<path opacity="0.1" d="M47.2932 45.6975C46.7295 46.2271 46.3311 47.1256 45.4994 47.1256C45.0882 47.1262 44.6809 47.0455 44.3005 46.8881C43.948 46.0432 43.658 45.3896 43.658 45.3896L47.6053 44.3285C47.4768 45.0883 47.1582 45.1576 47.2932 45.6975Z" fill="black"/>
<path d="M45.4992 46.8483C47.2452 46.8483 48.6607 45.423 48.6607 43.6648C48.6607 41.9066 47.2452 40.4813 45.4992 40.4813C43.7531 40.4813 42.3376 41.9066 42.3376 43.6648C42.3376 45.423 43.7531 46.8483 45.4992 46.8483Z" fill="#FFC1C7"/>
<path d="M47.3435 48.1757C47.3435 48.1757 45.9776 49.5715 45.3433 49.6695C44.7089 49.7675 42.336 53.8791 42.996 57.1957C43.656 60.5124 42.2056 67.41 42.8647 67.8075C43.5238 68.205 54.0641 66.3488 54.0641 66.3488L47.3435 48.1757Z" fill="#F2F2F2"/>
<path d="M48.6609 47.512C48.6609 47.512 46.2897 46.7161 45.4994 50.9608C44.709 55.2055 43.6551 51.6245 43.6551 57.0617C43.6551 62.4988 43.2595 64.4908 43.9186 69.133C44.5777 73.7752 45.1037 73.7761 44.3133 75.3679C43.5229 76.9596 52.7441 76.5622 54.984 73.5108C57.2238 70.4595 54.3249 59.0518 53.1397 57.327C51.9546 55.6021 51.9537 50.2971 51.0284 48.9707C50.7519 48.5793 50.3996 48.2483 49.9927 47.9976C49.5859 47.7469 49.1328 47.5817 48.6609 47.512Z" fill="#0082FF"/>
<path d="M48.5902 73.4766L47.4235 72.0069L43.6992 54.1093L46.2026 49.4042C46.414 49.0065 46.7181 48.6662 47.0886 48.4127C47.4592 48.1591 47.8853 47.9998 48.3304 47.9483C48.7731 47.8935 49.2223 47.9492 49.6385 48.1104C50.0547 48.2716 50.4251 48.5334 50.7172 48.8727C54.3405 53.0268 56.159 65.9079 56.2343 66.4542L56.2416 66.506L55.8744 67.4682L53.9467 71.8193L48.5902 73.4766ZM47.7907 71.8331L48.7307 73.0163L53.6547 71.4874L55.5054 67.3111L55.835 66.4542C55.7046 65.5502 53.853 53.0666 50.4189 49.1306C50.1653 48.8419 49.8462 48.6192 49.4886 48.4816C49.1311 48.344 48.7458 48.2955 48.3657 48.3404C47.9855 48.3853 47.6218 48.5221 47.3055 48.7392C46.9893 48.9563 46.7299 49.2473 46.5496 49.5872L44.1151 54.1656L47.7907 71.8331Z" fill="#2F2E41"/>
<path d="M40.625 55.604L37.2018 52.5378C37.1649 52.5044 37.1412 52.4588 37.1349 52.4092C37.1287 52.3597 37.1404 52.3095 37.1679 52.2679L37.2101 52.2032C37.2248 52.1802 37.2443 52.1608 37.2673 52.1463C37.2903 52.1318 37.3162 52.1227 37.3432 52.1195C37.3701 52.1163 37.3975 52.1192 37.4232 52.1279C37.4489 52.1366 37.4724 52.151 37.4919 52.1699L40.6131 55.0817C40.649 55.1145 40.6779 55.1544 40.698 55.1988C40.7182 55.2433 40.7291 55.2914 40.7303 55.3402C40.7314 55.3891 40.7226 55.4376 40.7045 55.483C40.6864 55.5283 40.6594 55.5695 40.625 55.604Z" fill="#0082FF"/>
<path d="M40.625 55.604L37.2018 52.5378C37.1649 52.5044 37.1412 52.4588 37.1349 52.4092C37.1287 52.3597 37.1404 52.3095 37.1679 52.2679L37.2101 52.2032L40.6167 55.2795C40.6393 55.2998 40.6574 55.3244 40.6701 55.352C40.6828 55.3796 40.6897 55.4095 40.6905 55.4399C40.6913 55.4703 40.6859 55.5006 40.6746 55.5288C40.6633 55.557 40.6465 55.5826 40.625 55.604Z" fill="#192534"/>
<path d="M50.7687 56.2667C50.7687 56.2667 45.8942 55.8692 44.9726 54.1407C44.0509 52.4121 41.6788 53.3448 42.338 54.1407C42.9971 54.9366 42.8649 56.7936 44.7091 56.9267C46.5533 57.0598 51.1634 57.9916 51.1634 57.9916L50.7687 56.2667Z" fill="#FFC1C7"/>
<path d="M56.0378 66.481C56.0378 66.481 52.7441 66.7463 51.9537 70.1951C51.1633 73.6439 47.607 71.92 47.607 71.92C47.607 71.92 47.2114 80.94 53.0075 78.6854C58.8037 76.4309 60.1219 72.1853 60.1219 71.6547C60.1219 71.1241 56.17 67.9406 56.0378 66.481Z" fill="#2F2E41"/>
<path opacity="0.1" d="M47.8704 72.5828C47.8704 72.5828 51.4239 74.3076 52.2171 70.8588C52.9698 67.5736 55.9909 67.1771 56.2773 67.1465C56.1539 66.9431 56.0724 66.7168 56.0377 66.481C56.0377 66.481 52.744 66.7463 51.9536 70.1951C51.1632 73.6439 47.607 71.92 47.607 71.92C47.607 71.92 47.4784 74.8641 48.4487 76.968C47.7667 74.9593 47.8704 72.5828 47.8704 72.5828Z" fill="black"/>
<path opacity="0.1" d="M60.0934 71.8571C60.1089 71.7916 60.1184 71.7248 60.1218 71.6575C60.1218 71.2036 57.2293 68.8067 56.3113 67.2103C56.5059 68.4434 59.1938 70.796 60.0934 71.8571Z" fill="black"/>
<path d="M41.418 41.4315C41.2344 42.012 41.8283 42.599 42.4278 42.66C43.0272 42.721 43.6083 42.4317 44.1573 42.1729C44.7062 41.914 45.3194 41.6718 45.906 41.829C46.5486 42 46.9764 42.6018 47.2619 43.2026C47.5111 43.7281 47.6928 44.2835 47.8026 44.8554C47.9201 45.4673 47.9742 46.1402 48.3919 46.6024C48.8096 47.0646 49.5027 47.1894 50.1361 47.1866C50.7695 47.1839 51.4102 47.0942 52.0207 47.2513C53.2324 47.5693 53.9824 48.7849 54.4148 49.9653C54.8472 51.1457 55.107 52.4315 55.89 53.4141C56.5427 54.235 57.4946 54.7554 58.4484 55.1871C58.9294 55.4043 59.4279 55.6067 59.953 55.6566C60.4781 55.7065 61.0417 55.5836 61.4218 55.2213C61.8505 54.8164 61.9882 54.1989 62.1047 53.6202C62.2746 52.7809 62.4444 51.9185 62.304 51.0727C62.1204 49.9634 61.4126 48.9882 61.2501 47.8744C61.0922 46.791 61.464 45.6975 61.4264 44.603C61.363 42.7709 60.0237 41.0534 58.2676 40.5515C57.625 40.3666 56.9503 40.3334 56.3334 40.0893C55.5292 39.7667 54.9096 39.1178 54.2523 38.5512C52.6814 37.1999 50.8058 36.2564 48.7894 35.803C47.4363 35.5007 45.8353 35.4961 44.8788 36.5028C44.4905 36.9123 44.2362 37.466 43.7405 37.7396C43.4862 37.881 43.1943 37.9318 42.9207 38.0271C41.5695 38.4948 40.7929 40.1901 41.317 41.5249" fill="#2F2E41"/>
<path opacity="0.1" d="M60.7479 54.3302C60.2228 54.2803 59.7243 54.0778 59.2433 53.8606C58.2895 53.4289 57.3385 52.9085 56.6849 52.0876C55.9018 51.105 55.6411 49.8202 55.2097 48.6388C54.7782 47.4575 54.0273 46.2429 52.8156 45.9249C52.2051 45.764 51.5616 45.8574 50.9309 45.8602C50.3003 45.8629 49.6136 45.7455 49.1868 45.276C48.7599 44.8064 48.7149 44.1408 48.5974 43.5289C48.4878 42.9571 48.3061 42.4016 48.0567 41.8761C47.7712 41.2753 47.3416 40.6745 46.7009 40.5025C46.1143 40.3454 45.5011 40.5876 44.9521 40.8464C44.4032 41.1052 43.8267 41.3945 43.2226 41.3335C42.6186 41.2725 42.0292 40.6865 42.2128 40.105L42.121 40.1975C41.9236 39.6745 41.9017 39.1008 42.0586 38.5641C41.2811 39.299 40.9332 40.5145 41.3297 41.5221L41.4215 41.4297C41.2379 42.0102 41.8319 42.5971 42.4313 42.6582C43.0308 42.7192 43.6119 42.4298 44.1608 42.171C44.7098 41.9122 45.323 41.67 45.9096 41.8271C46.5522 41.9982 46.9799 42.5999 47.2654 43.2008C47.5147 43.7263 47.6964 44.2817 47.8061 44.8535C47.9236 45.4655 47.9778 46.1384 48.3955 46.6006C48.8131 47.0628 49.5062 47.1876 50.1396 47.1848C50.773 47.182 51.4138 47.0924 52.0243 47.2495C53.236 47.5675 53.986 48.783 54.4184 49.9634C54.8507 51.1439 55.1105 52.4297 55.8936 53.4123C56.5462 54.2331 57.4982 54.7535 58.452 55.1852C58.933 55.4024 59.4315 55.6049 59.9566 55.6548C60.4816 55.7047 61.0453 55.5818 61.4253 55.2194C61.7485 54.9144 61.9063 54.4873 62.0147 54.0473C61.6351 54.2801 61.1896 54.3796 60.7479 54.3302Z" fill="black"/>
<path d="M47.3435 49.3691C47.3435 49.3691 46.9479 52.2873 48.3974 52.951C49.8469 53.6147 50.8998 55.8655 50.8998 55.8655L49.7147 56.1308C49.7147 56.1308 49.319 57.9879 50.3729 58.5185C51.4267 59.0491 54.3248 58.5185 54.3248 58.5185C54.3248 58.5185 55.643 57.8548 54.5882 55.7324C53.5335 53.6101 50.506 48.9716 50.506 48.9716C50.506 48.9716 48.9243 47.2467 47.3435 49.3691Z" fill="#0082FF"/>
<path d="M47.7291 44.6677C48.0794 44.6677 48.3634 44.239 48.3634 43.7101C48.3634 43.1812 48.0794 42.7524 47.7291 42.7524C47.3787 42.7524 47.0947 43.1812 47.0947 43.7101C47.0947 44.239 47.3787 44.6677 47.7291 44.6677Z" fill="#FFC1C7"/>
<path d="M47.7291 44.1353C47.904 44.1353 48.0458 43.9925 48.0458 43.8164C48.0458 43.6403 47.904 43.4975 47.7291 43.4975C47.5541 43.4975 47.4124 43.6403 47.4124 43.8164C47.4124 43.9925 47.5541 44.1353 47.7291 44.1353Z" fill="#F2F2F2"/>
<path d="M47.6065 44.367C47.6983 44.1832 47.7092 44.002 47.6308 43.9624C47.5525 43.9227 47.4145 44.0395 47.3227 44.2233C47.2309 44.4071 47.22 44.5883 47.2984 44.628C47.3767 44.6676 47.5147 44.5508 47.6065 44.367Z" fill="#F2F2F2"/>
<path d="M27.4416 34.5126H15.7832V35.6218H27.4416V34.5126Z" fill="#0082FF"/>
<path opacity="0.1" d="M32.7201 48.8283L30.3535 44.6807H10V31.0924H36.8051V44.6807H32.7201V48.8283ZM10.0918 44.5882H30.4068L32.6283 48.4826V44.5882H36.7133V31.1849H10.0918V44.5882Z" fill="black"/>
<mask id="path-34-inside-1" fill="white">
<path d="M32.7201 48.7359L30.3535 44.5882H10V31H36.8051V44.5882H32.7201V48.7359ZM10.0918 44.4958H30.4068L32.6283 48.3902V44.4958H36.7133V31.0924H10.0918V44.4958Z"/>
</mask>
<path d="M32.7201 48.7359L30.3535 44.5882H10V31H36.8051V44.5882H32.7201V48.7359ZM10.0918 44.4958H30.4068L32.6283 48.3902V44.4958H36.7133V31.0924H10.0918V44.4958Z" fill="white"/>
<path d="M32.7201 48.7359L30.1144 50.2226L35.7201 60.0472V48.7359H32.7201ZM30.3535 44.5882L32.9592 43.1015L32.0958 41.5882H30.3535V44.5882ZM10 44.5882H7V47.5882H10V44.5882ZM10 31V28H7V31H10ZM36.8051 31H39.8051V28H36.8051V31ZM36.8051 44.5882V47.5882H39.8051V44.5882H36.8051ZM32.7201 44.5882V41.5882H29.7201V44.5882H32.7201ZM10.0918 44.4958H7.0918V47.4958H10.0918V44.4958ZM30.4068 44.4958L33.0126 43.0093L32.1492 41.4958H30.4068V44.4958ZM32.6283 48.3902L30.0225 49.8767L35.6283 59.7038V48.3902H32.6283ZM32.6283 44.4958V41.4958H29.6283V44.4958H32.6283ZM36.7133 44.4958V47.4958H39.7133V44.4958H36.7133ZM36.7133 31.0924H39.7133V28.0924H36.7133V31.0924ZM10.0918 31.0924V28.0924H7.0918V31.0924H10.0918ZM35.3258 47.2491L32.9592 43.1015L27.7478 46.075L30.1144 50.2226L35.3258 47.2491ZM30.3535 41.5882H10V47.5882H30.3535V41.5882ZM13 44.5882V31H7V44.5882H13ZM10 34H36.8051V28H10V34ZM33.8051 31V44.5882H39.8051V31H33.8051ZM36.8051 41.5882H32.7201V47.5882H36.8051V41.5882ZM29.7201 44.5882V48.7359H35.7201V44.5882H29.7201ZM10.0918 47.4958H30.4068V41.4958H10.0918V47.4958ZM27.8009 45.9823L30.0225 49.8767L35.2341 46.9037L33.0126 43.0093L27.8009 45.9823ZM35.6283 48.3902V44.4958H29.6283V48.3902H35.6283ZM32.6283 47.4958H36.7133V41.4958H32.6283V47.4958ZM39.7133 44.4958V31.0924H33.7133V44.4958H39.7133ZM36.7133 28.0924H10.0918V34.0924H36.7133V28.0924ZM7.0918 31.0924V44.4958H13.0918V31.0924H7.0918Z" fill="white" mask="url(#path-34-inside-1)"/>
<path d="M13.0293 36.5924C13.8659 36.5924 14.544 35.9096 14.544 35.0672C14.544 34.2249 13.8659 33.542 13.0293 33.542C12.1928 33.542 11.5146 34.2249 11.5146 35.0672C11.5146 35.9096 12.1928 36.5924 13.0293 36.5924Z" fill="#0082FF"/>
<path d="M31.9856 41.9538C32.2898 41.9538 32.5364 41.7055 32.5364 41.3992C32.5364 41.0929 32.2898 40.8446 31.9856 40.8446C31.6814 40.8446 31.4348 41.0929 31.4348 41.3992C31.4348 41.7055 31.6814 41.9538 31.9856 41.9538Z" fill="white"/>
<path d="M33.3626 41.9538C33.6667 41.9538 33.9133 41.7055 33.9133 41.3992C33.9133 41.0929 33.6667 40.8446 33.3626 40.8446C33.0584 40.8446 32.8118 41.0929 32.8118 41.3992C32.8118 41.7055 33.0584 41.9538 33.3626 41.9538Z" fill="white"/>
<path d="M34.7398 41.9538C35.0439 41.9538 35.2905 41.7055 35.2905 41.3992C35.2905 41.0929 35.0439 40.8446 34.7398 40.8446C34.4356 40.8446 34.189 41.0929 34.189 41.3992C34.189 41.7055 34.4356 41.9538 34.7398 41.9538Z" fill="white"/>
</svg>
