<svg width="123" height="93" viewBox="0 0 123 93" fill="none" xmlns="http://www.w3.org/2000/svg">
<circle cx="62" cy="47" r="39" fill="#FF5200"/>
<circle cx="104.419" cy="30.4002" r="3.55483" transform="rotate(20.6735 104.419 30.4002)" fill="#FF5200"/>
<circle cx="98.6153" cy="23.0996" r="2.24516" transform="rotate(20.6735 98.6153 23.0996)" fill="#FF5200"/>
<ellipse cx="42" cy="5.5" rx="6" ry="5.5" fill="#FF5200"/>
<circle cx="32.5" cy="14.5" r="3.5" fill="#FF5200"/>
<g clip-path="url(#clip0)">
<path d="M61.2742 45.5476L61.271 45.569L61.2623 45.6311L60.3577 52.1174L54.819 54.1481L54.7322 54.1067L51.6313 52.6351L50.0278 46.4872L49.918 46.0652L49.9514 46.0524L56.8113 43.477L61.2702 45.5451L61.2742 45.5476Z" fill="#0082FF"/>
<path d="M54.7322 54.1067L51.6313 52.6351L49.918 46.0652L49.9514 46.0524L54.4206 47.9366L54.7322 54.1067Z" fill="#0082FF"/>
<path opacity="0.2" d="M54.8101 54.0317L52.4513 49.5148L52.7543 48.2343L51.3275 46.5554L51.2061 46.6585L52.5806 48.276L51.5538 52.6167L51.709 52.6535L52.3953 49.7518L54.6687 54.1054L54.8101 54.0317Z" fill="black"/>
<path d="M61.2742 45.6271L61.2623 45.6311L54.4206 48.0162L50.0278 46.4872L49.918 46.0652L49.9514 46.0524L56.8113 43.477L61.2702 45.5451L61.271 45.569L61.2742 45.6271Z" fill="#3F3D56"/>
<path d="M54.5399 48.1356L53.1453 47.0606L53.464 45.8661L57.4487 44.4326L60.1583 44.5918L61.2342 45.5077L61.3138 45.7465L54.5399 48.1356Z" fill="#0082FF"/>
<path d="M49.9973 46.0652L53.1452 45.9457L54.8505 45.3673L57.5092 44.4326L58.0065 43.7159L56.7657 43.494L49.9973 46.0652Z" fill="#0082FF"/>
<path d="M56.269 44.7837L54.6277 45.3593L54.6805 45.5096L56.3218 44.934L56.269 44.7837Z" fill="#CCCCCC"/>
<path d="M34.6499 35.4706L33.8804 39.315L37.4712 42.0062L39.1385 37.0083L34.6499 35.4706Z" fill="#9F616A"/>
<path d="M37.5353 38.9947C39.4477 38.9947 40.9979 37.4455 40.9979 35.5346C40.9979 33.6236 39.4477 32.0745 37.5353 32.0745C35.623 32.0745 34.0728 33.6236 34.0728 35.5346C34.0728 37.4455 35.623 38.9947 37.5353 38.9947Z" fill="#9F616A"/>
<path d="M30.0332 61.7511C30.049 62.8674 34.9145 75.2915 34.239 76.9092C33.1741 77.997 30.8835 83.7865 29.9049 85.331C29.7767 85.3309 29.1355 87.2532 29.1355 87.2532C29.1355 87.2532 30.6744 89.6881 32.3416 88.6629C34.4379 83.736 39.6879 80.9881 39.7807 74.5667C40.0341 76.5952 40.7821 89.6159 40.7821 89.6159C40.7821 89.6159 40.6386 89.6768 43.8685 89.986C44.3699 82.4289 46.4191 69.572 41.8315 61.4947C40.421 60.8541 30.0332 61.7511 30.0332 61.7511Z" fill="#2F2E41"/>
<path d="M40.7818 89.3625C40.6319 89.6506 39.5566 92.31 40.5351 92.5767C41.6635 92.8842 42.7573 92.4533 42.7573 92.4533C42.7573 92.4533 44.7326 93.0702 45.9414 92.2862C46.5056 91.7224 46.3774 91.2099 46.1081 90.8383C45.9713 90.6552 45.7962 90.5042 45.5949 90.3958C45.3936 90.2874 45.1711 90.2242 44.9429 90.2107C44.3294 90.167 44.1346 90.0533 44.0644 89.7725C43.9618 89.3625 40.7818 89.3625 40.7818 89.3625Z" fill="#FF004C"/>
<path d="M30.2297 87.0401C30.2297 87.0401 27.4734 87.9099 28.0537 88.9247C28.4305 89.5536 28.9808 90.0607 29.6386 90.3851C29.6386 90.3851 30.2134 92.7533 31.8092 92.7533C32.6071 92.7533 32.8791 92.3003 32.9516 91.8473C32.9844 91.6212 32.9674 91.3906 32.9018 91.1718C32.8362 90.9529 32.7236 90.751 32.5718 90.5801C32.169 90.1157 32.1116 89.8978 32.2607 89.6495C32.4783 89.2871 30.2297 87.0401 30.2297 87.0401Z" fill="#FF004C"/>
<path d="M42.4733 62.1263C42.4733 62.1263 41.9597 63.1515 39.9079 62.7665C37.856 62.3829 29.7771 62.7665 29.7771 62.7665C29.7771 62.7665 30.2253 53.6042 29.1994 48.0934C28.1734 42.5826 32.2129 39.443 32.2129 39.443L33.4956 38.1612C34.7783 38.0341 37.4869 42.0114 37.4869 42.0114C38.3783 42.1607 39.2103 45.9468 39.9202 49.5294C39.9622 49.7342 40.0017 49.9365 40.0412 50.1388C40.3684 51.8092 40.8239 53.6683 41.0967 55.3374C41.1165 55.4559 41.135 55.5731 41.1523 55.6903C41.4766 57.8578 41.9176 60.0062 42.4733 62.1263Z" fill="#E6E6E6"/>
<path d="M33.4847 33.3801C33.4847 33.3801 32.8373 31.9569 34.5205 31.31C34.5205 31.31 35.9448 28.9811 38.7933 30.5337C38.7933 30.5337 40.7354 31.31 40.7354 33.3801C40.7354 35.4503 41.3828 35.8384 41.3828 35.8384C41.3828 35.8384 40.4187 34.8501 40.1598 34.0738C39.9008 33.2975 37.8869 33.1214 37.1101 33.8977C36.3332 34.674 34.391 34.5446 34.391 34.5446L34.5205 37.391C34.5205 37.391 33.8731 35.709 33.6142 35.709C33.3552 35.709 33.0963 33.3801 33.4847 33.3801Z" fill="#2F2E41"/>
<path opacity="0.2" d="M41.0969 55.3375C38.0377 53.6757 33.0822 50.0315 31.4834 48.0601C29.3761 45.4632 31.6748 43.4894 31.6748 43.4894C34.2809 41.8462 37.397 47.484 37.397 47.484L39.9204 49.5294C39.9624 49.7342 40.0019 49.9365 40.0414 50.1388C40.3685 51.8092 40.8241 53.6683 41.0969 55.3375Z" fill="black"/>
<path d="M50.2292 53.4224C50.2292 53.4224 54.7774 55.2674 55.5259 53.1934C56.2745 51.1194 51.9351 51.155 51.9351 51.155L50.2316 51.3962L50.2292 53.4224Z" fill="#9F616A"/>
<path d="M31.0919 42.6454C31.0919 42.6454 28.7943 44.6204 30.9002 47.2164C33.006 49.8124 42.6841 55.3591 42.6841 55.3591L48.9882 53.6561L50.7722 53.9823L51.1086 50.6353L48.4803 50.8917L41.8087 49.4722L37.5544 46.0227C37.5544 46.0227 33.6974 41.003 31.0919 42.6454Z" fill="#E6E6E6"/>
<path opacity="0.2" d="M39.4622 66.4376L39.8642 75.8234L38.845 66.4376H39.4622Z" fill="black"/>
<path d="M82.8611 59.7236L79.2119 60.5686C78.9297 60.6339 78.633 60.5867 78.385 60.437C78.137 60.2872 77.9571 60.0468 77.8837 59.7667C77.8412 59.6042 77.8359 59.4343 77.8685 59.2695C77.901 59.1048 77.9704 58.9495 78.0715 58.8154C78.1726 58.6813 78.3028 58.5718 78.4523 58.4951C78.6018 58.4185 78.7668 58.3766 78.9348 58.3727L82.4596 58.2908L82.8611 59.7236Z" fill="#FFB9B9"/>
<path d="M82.4735 60.2588L81.6631 57.8292L86.5217 56.1708L85.2322 44.8229C87.5539 45.2447 88.6589 47.0691 88.5554 49.4249L89.184 57.1684L82.4735 60.2588Z" fill="#0082FF"/>
<path d="M85.8303 42.321H93.7683V38.3763C93.7711 37.311 93.3533 36.2875 92.6057 35.528C92.2405 35.1538 91.804 34.8566 91.322 34.6539C90.8399 34.4512 90.322 34.3472 89.799 34.3479C88.7546 34.3498 87.7528 34.7625 87.0104 35.4966C86.2679 36.2307 85.8445 37.2273 85.8315 38.271C85.8309 38.3071 85.8303 38.3414 85.8303 38.3763L85.8303 42.321Z" fill="#2F2E41"/>
<path d="M97.0873 88.6766L94.5498 88.3856L91.5132 67.8929L85.232 88.4688L82.4866 88.5519L85.6064 63.2373L85.1488 57.4595L92.9275 55.007C98.437 58.8502 98.3229 72.4247 97.0873 88.6766Z" fill="#2F2E41"/>
<path d="M89.1007 41.5391C90.7548 41.5391 92.0958 40.1991 92.0958 38.5462C92.0958 36.8933 90.7548 35.5534 89.1007 35.5534C87.4466 35.5534 86.1057 36.8933 86.1057 38.5462C86.1057 40.1991 87.4466 41.5391 89.1007 41.5391Z" fill="#FFB9B9"/>
<path d="M92.0959 43.95L87.021 45.2802C87.876 43.6371 88.1496 42.1032 87.6866 40.7078L91.264 40.1258C91.034 41.4601 91.3324 42.8315 92.0959 43.95Z" fill="#FFB9B9"/>
<path d="M93.8013 56.1292C90.9549 57.9381 87.6392 60.0161 85.1906 57.9998L84.0258 52.3466C83.1001 51.5227 83.5106 48.9802 84.7621 45.3562C84.8416 45.1261 84.9724 44.9172 85.1447 44.7452C85.317 44.5732 85.5263 44.4427 85.7565 44.3635L87.6864 43.7006C88.5417 44.4193 89.9438 43.9906 91.5966 43.0355L93.5101 43.5343L94.342 49.7694C93.1411 51.5675 93.3509 53.9616 93.8013 56.1292Z" fill="#0082FF"/>
<path d="M91.4299 58.5598L87.7808 59.4047C87.4985 59.4701 87.2018 59.4229 86.9538 59.2731C86.7058 59.1234 86.526 58.8829 86.4526 58.6028C86.41 58.4404 86.4048 58.2704 86.4373 58.1057C86.4698 57.9409 86.5393 57.7857 86.6404 57.6516C86.7415 57.5174 86.8717 57.4079 87.0212 57.3313C87.1707 57.2546 87.3356 57.2127 87.5036 57.2088L91.0284 57.1269L91.4299 58.5598Z" fill="#FFB9B9"/>
<path d="M96.6464 92.5945C96.2202 92.7889 95.8633 91.5843 95.5038 91.9373C94.4983 92.9247 92.0861 92.7034 92.0861 92.7034C92.0051 92.6774 91.9303 92.6352 91.8661 92.5794C91.8019 92.5237 91.7497 92.4554 91.7126 92.3789C91.6756 92.3024 91.6545 92.2192 91.6506 92.1342C91.6467 92.0493 91.66 91.9645 91.6899 91.8849C91.7257 91.7896 91.784 91.7045 91.86 91.6368C91.936 91.569 92.0272 91.5208 92.126 91.4961L93.1954 91.2289L94.8744 88.2782L96.7043 88.0468L96.7505 88.1223C97.1043 88.6921 97.3323 89.3306 97.4195 89.9954C97.5067 90.6602 97.451 91.336 97.2561 91.9775C97.1039 92.4648 96.8968 92.4803 96.6464 92.5945Z" fill="#FF004C"/>
<path d="M84.5829 92.5945C84.1568 92.7889 83.7998 91.5843 83.4403 91.9373C82.4348 92.9247 80.0226 92.7034 80.0226 92.7034C79.9416 92.6774 79.8668 92.6352 79.8026 92.5794C79.7384 92.5237 79.6862 92.4554 79.6491 92.3789C79.6121 92.3024 79.591 92.2192 79.5871 92.1342C79.5832 92.0493 79.5966 91.9645 79.6264 91.8849C79.6622 91.7896 79.7206 91.7045 79.7965 91.6368C79.8725 91.569 79.9638 91.5208 80.0625 91.4961L81.1319 91.2289L82.811 88.2782L84.6408 88.0468L84.687 88.1223C85.0408 88.6921 85.2689 89.3306 85.3561 89.9954C85.4433 90.6602 85.3875 91.336 85.1926 91.9775C85.0405 92.4648 84.8333 92.4803 84.5829 92.5945Z" fill="#FF004C"/>
<path d="M92.6119 36.0499L91.8576 38.4481L85.3359 38.3323C85.3582 37.4932 85.6422 36.6821 86.1483 36.0121C86.6543 35.3422 87.3572 34.8469 88.1586 34.5955C88.96 34.3442 89.82 34.3492 90.6184 34.6099C91.4168 34.8707 92.1138 35.3741 92.6119 36.0499H92.6119Z" fill="#2F2E41"/>
<path d="M91.0426 59.0949L90.2322 56.6653L95.0908 55.007L93.2529 43.4131C94.3756 43.6171 95.3864 44.2206 96.0982 45.1119C96.8099 46.0031 97.1745 47.1219 97.1245 48.2611L97.753 56.0046L91.0426 59.0949Z" fill="#0082FF"/>
<path d="M79.4382 52.5449L74.3847 53.6309L73.3523 48.6626L75.2541 46.1105L76.9657 45.7847L78.8675 47.7123L79.4382 52.5449Z" fill="#CCCCCC"/>
<path d="M77.1015 52.7615H74.0583L73.6435 50.7149L73.1892 48.4721L73.8682 47.495L75.1731 47.9021L76.5855 49.8575L76.9398 51.8498L76.9645 51.9917L77.1015 52.7615Z" fill="#E6E6E6"/>
<path d="M82.2091 51.5675L78.7043 51.9747L79.3293 47.5223L80.742 46.2462L81.9646 46.5449L82.7797 48.4182L82.2091 51.5675Z" fill="#CCCCCC"/>
<path d="M82.6704 48.9335L82.3445 50.726L81.2852 56.8338L77.21 58.1378L77.0693 58.0613L74.873 56.861L73.6372 50.7124L73.6434 50.7149L76.9112 52.0287L76.9396 51.8498L76.9594 51.7203L77.21 50.1289L78.3236 48.9335L82.0457 48.0378L82.6704 48.9335Z" fill="#E6E6E6"/>
<path d="M80.0899 48.744C80.57 48.744 80.9593 48.355 80.9593 47.8752C80.9593 47.3954 80.57 47.0064 80.0899 47.0064C79.6097 47.0064 79.2205 47.3954 79.2205 47.8752C79.2205 48.355 79.6097 48.744 80.0899 48.744Z" fill="#E6E6E6"/>
<path d="M77.9523 48.3236L75.969 48.6765L75.9785 48.7299L77.9618 48.377L77.9523 48.3236Z" fill="white"/>
<path d="M77.0694 58.0613L74.8731 56.861L73.6374 50.7124L73.6435 50.7149L73.1892 48.4721L73.8682 47.495L75.1731 47.9021L76.5855 49.8575L76.9398 51.8498L76.9595 51.7203L76.9645 51.9917L76.9781 52.7615L77.0694 58.0613Z" fill="#F2F2F2"/>
<path d="M74.8999 56.8686L74.8473 56.8545L75.9307 52.7951L74.6902 51.1608L74.7335 51.128L75.99 52.7833L74.8999 56.8686Z" fill="#CCCCCC"/>
<path d="M75.5113 54.5511L75.4624 54.5747L77.1855 58.1494L77.2344 58.1258L75.5113 54.5511Z" fill="#CCCCCC"/>
<path opacity="0.2" d="M82.4564 50.3539L82.2524 51.4804L82.2421 51.4814L81.3286 56.7473L77.2533 58.0505L77.2289 58.0622L77.2126 58.0282L74.9168 56.7745L74.8904 56.7674L74.9046 56.7142L73.6806 50.6252L73.6868 50.6276L73.5513 49.9592L73.6526 49.8134L73.9659 49.3627L75.27 49.77L76.6828 51.7247L76.7034 51.8409L76.8517 52.6749L76.9113 53.0099L77.037 53.7177L77.1566 52.9573L77.1995 52.6836L77.3077 51.9962L78.4216 50.8016L78.9169 50.6824L79.2616 50.5994L79.736 50.4853C79.5889 50.396 79.4716 50.265 79.3991 50.109C79.3265 49.953 79.302 49.7789 79.3285 49.6089C79.3551 49.4389 79.4315 49.2807 79.5482 49.1542C79.6649 49.0276 79.8165 48.9386 79.9839 48.8983C80.1513 48.858 80.3269 48.8683 80.4884 48.9278C80.6499 48.9873 80.7901 49.0934 80.8912 49.2327C80.9923 49.3719 81.0498 49.538 81.0563 49.71C81.0629 49.8819 81.0182 50.0519 80.9279 50.1984L82.1437 49.9057L82.4434 50.3355L82.4564 50.3539Z" fill="black"/>
<path d="M77.1992 54.9011H74.1562L73.2869 50.6116L73.9661 49.6342L75.2702 50.0414L76.683 51.9961L77.1992 54.9011Z" fill="#E6E6E6"/>
<path d="M81.3834 58.9736L77.308 60.2767L74.9715 59.0008L73.7354 52.8515L77.0093 54.1681L77.308 52.2677L78.422 51.0731L82.1441 50.1772L82.7691 51.0731L82.443 52.865L81.3834 58.9736Z" fill="#E6E6E6"/>
<path d="M80.1878 50.8831C80.6679 50.8831 81.0572 50.4941 81.0572 50.0143C81.0572 49.5345 80.6679 49.1455 80.1878 49.1455C79.7076 49.1455 79.3184 49.5345 79.3184 50.0143C79.3184 50.4941 79.7076 50.8831 80.1878 50.8831Z" fill="#E6E6E6"/>
<path d="M77.1693 60.1586L74.973 58.9582L73.7372 52.8096L73.7434 52.8121L73.2891 50.5693L73.9681 49.5923L75.273 49.9994L76.6853 51.9547L77.0396 53.9471L77.0594 53.8175L77.0643 54.0889L77.0779 54.8588L77.1693 60.1586Z" fill="#F2F2F2"/>
<path d="M74.9973 59.0077L74.9449 58.9937L76.0282 54.9341L74.7876 53.2999L74.8309 53.2671L76.0876 54.9225L74.9973 59.0077Z" fill="#CCCCCC"/>
<path d="M75.6095 56.6902L75.5605 56.7138L77.2836 60.2885L77.3326 60.265L75.6095 56.6902Z" fill="#CCCCCC"/>
<path d="M111.289 87.3768L106.236 88.4628L105.204 83.4945L107.105 80.9424L108.817 80.6166L110.719 82.5442L111.289 87.3768Z" fill="#CCCCCC"/>
<path d="M108.953 87.5934H105.91L105.495 85.5468L105.041 83.304L105.72 82.3269L107.024 82.734L108.437 84.6894L108.791 86.6817L108.816 86.8236L108.953 87.5934Z" fill="#E6E6E6"/>
<path d="M114.061 86.3994L110.556 86.8067L111.181 82.3542L112.594 81.0782L113.816 81.3768L114.631 83.2501L114.061 86.3994Z" fill="#CCCCCC"/>
<path d="M114.522 83.7653L114.196 85.5578L113.137 91.6657L109.062 92.9697L108.921 92.8932L106.725 91.6928L105.489 85.5443L105.495 85.5467L108.763 86.8606L108.791 86.6817L108.811 86.5522L109.062 84.9608L110.175 83.7653L113.897 82.8697L114.522 83.7653Z" fill="#E6E6E6"/>
<path d="M111.942 83.5759C112.422 83.5759 112.811 83.187 112.811 82.7071C112.811 82.2273 112.422 81.8384 111.942 81.8384C111.462 81.8384 111.072 82.2273 111.072 82.7071C111.072 83.187 111.462 83.5759 111.942 83.5759Z" fill="#E6E6E6"/>
<path d="M109.804 83.1555L107.821 83.5085L107.83 83.5619L109.813 83.209L109.804 83.1555Z" fill="white"/>
<path d="M108.921 92.8932L106.724 91.6929L105.489 85.5443L105.495 85.5468L105.041 83.304L105.72 82.3269L107.024 82.734L108.437 84.6894L108.791 86.6817L108.811 86.5522L108.816 86.8236L108.829 87.5934L108.921 92.8932Z" fill="#F2F2F2"/>
<path d="M106.751 91.7005L106.699 91.6866L107.782 87.627L106.542 85.9927L106.585 85.9599L107.841 87.6152L106.751 91.7005Z" fill="#CCCCCC"/>
<path d="M107.363 89.383L107.314 89.4065L109.037 92.9813L109.086 92.9577L107.363 89.383Z" fill="#CCCCCC"/>
<path d="M121.275 92.496H117.942L117.448 86.081H121.769L121.275 92.496Z" fill="#E6E6E6"/>
<path d="M121.831 88.6717H117.386V89.6586H121.831V88.6717Z" fill="#F2F2F2"/>
<path d="M122.973 86.5415L122.262 86.3324L122.253 86.0724L119.095 85.1429L118.946 85.3563L118.236 85.1472L117.79 85.7875L123 87.3213L122.973 86.5415Z" fill="#CCCCCC"/>
<path d="M18.4349 84.3994L18.4317 84.4208L18.4229 84.483L17.5184 90.9693L11.9797 93.0001L11.8929 92.9586L8.79193 91.487L7.18849 85.339L7.07861 84.917L7.11207 84.9043L13.972 82.3289L18.4308 84.397L18.4349 84.3994Z" fill="#0082FF"/>
<path d="M11.8929 92.9586L8.79193 91.487L7.07861 84.917L7.11207 84.9043L11.5813 86.7885L11.8929 92.9586Z" fill="#0082FF"/>
<path opacity="0.2" d="M11.9707 92.8835L9.61199 88.3665L9.91495 87.0861L8.48818 85.4071L8.3667 85.5103L9.74125 87.1278L8.71447 91.4686L8.86966 91.5052L9.55594 88.6037L11.8294 92.9572L11.9707 92.8835Z" fill="black"/>
<path d="M18.4349 84.4791L18.4229 84.483L11.5813 86.8681L7.18849 85.3391L7.07861 84.917L7.11207 84.9043L13.972 82.3289L18.4308 84.397L18.4317 84.4208L18.4349 84.4791Z" fill="#3F3D56"/>
<path d="M11.7011 86.9876L10.3064 85.9124L10.6252 84.7179L14.6098 83.2845L17.3194 83.4438L18.3953 84.3595L18.4749 84.5985L11.7011 86.9876Z" fill="#0082FF"/>
<path d="M7.15845 84.917L10.3063 84.7976L12.0116 84.2191L14.6703 83.2845L15.1676 82.5678L13.9269 82.3459L7.15845 84.917Z" fill="#0082FF"/>
<path d="M13.4302 83.6355L11.7888 84.2111L11.8416 84.3614L13.4829 83.7858L13.4302 83.6355Z" fill="#CCCCCC"/>
<path d="M4.4443 92.6435H1.11101L0.617188 86.2285H4.93812L4.4443 92.6435Z" fill="#0082FF"/>
<path d="M4.99981 88.8192H0.55542V89.8061H4.99981V88.8192Z" fill="#E6E6E6"/>
<path d="M5.18512 85.8584H4.44439L4.36205 85.6117H1.06999L0.987643 85.8584H0.246911L0 86.5986H5.43203L5.18512 85.8584Z" fill="#3F3D56"/>
<path d="M99.7938 92.5679H24.968V92.8146H99.7938V92.5679Z" fill="#3F3D56"/>
</g>
<defs>
<clipPath id="clip0">
<rect width="123" height="63" fill="white" transform="translate(0 30)"/>
</clipPath>
</defs>
</svg>
