<svg width="4090" height="3605" viewBox="0 0 4090 3605" fill="none" xmlns="http://www.w3.org/2000/svg">
<ellipse cx="2109.52" cy="1730.23" rx="1734.69" ry="1730.23" fill="#FF5200"/>
<ellipse cx="122.038" cy="1839.18" rx="122.038" ry="122.031" fill="#FF5200"/>
<ellipse cx="196.133" cy="2244.5" rx="152.548" ry="152.539" fill="#FF5200"/>
<ellipse cx="3360.41" cy="169.972" rx="169.982" ry="169.972" fill="#FF5200"/>
<ellipse cx="3665.51" cy="475.05" rx="135.114" ry="135.106" fill="#FF5200"/>
<ellipse cx="3844.21" cy="828.069" rx="113.321" ry="113.315" fill="#FF5200"/>
<ellipse cx="117.68" cy="1481.81" rx="91.5288" ry="95.8816" fill="#FF5200"/>
<path d="M4074.84 1933.63C4067.62 1928.07 4059.16 1924.35 4050.19 1922.79C4040.74 1920.62 4031.09 1919.25 4021.49 1917.73L3897.12 1899.76C3884.56 1897.42 3871.76 1896.74 3859.02 1897.73C3852.64 1898.26 3846.42 1900.05 3840.73 1903C3835.04 1905.96 3829.99 1910.02 3825.88 1914.95C3822.18 1919.53 3820.14 1925.25 3820.12 1931.15C3820.82 1937.08 3822.74 1942.81 3825.78 1947.96C3826.99 1950.36 3828.02 1952.85 3828.86 1955.4C3830.05 1961.12 3831.54 1966.78 3833.31 1972.36C3833.86 1973.56 3834.57 1974.69 3835.43 1975.7C3835.45 1975.99 3835.45 1976.27 3835.43 1976.56C3834.07 1983.55 3838.46 1990.84 3836.49 1997.57C3834.77 2003.34 3829.17 2006.84 3825.63 2011.65C3823.27 2015.06 3821.97 2019.09 3821.88 2023.24C3821.79 2027.39 3822.92 2031.47 3825.13 2034.98C3828.91 2040.86 3835.79 2044.86 3837.76 2051.59C3840.33 2060.45 3833.36 2069.01 3827.15 2075.84C3815.71 2088.42 3805.15 2101.77 3795.52 2115.79C3792.82 2119.23 3791.07 2123.34 3790.47 2127.68C3789.91 2136.49 3798.35 2144.24 3796.89 2153C3795.72 2159.88 3789 2164.09 3783.19 2168.19C3761.72 2182.36 3744.5 2205.14 3742.78 2230.91C3737.27 2189.91 3720.32 2151.31 3693.88 2119.53C3686.65 2110.82 3678.72 2102.07 3675.74 2091.03C3674.63 2086.62 3674.43 2081.92 3672.91 2077.66C3667.86 2064.25 3651.79 2058.48 3644.77 2046.12C3639.72 2037.41 3639.72 2026.23 3633.46 2018.58C3627.19 2010.94 3617.34 2009.22 3611.94 2001.82C3609.24 1996.82 3606.94 1991.6 3605.06 1986.23C3602.8 1981.85 3599.61 1978.01 3595.72 1974.99C3594.97 1974.39 3594.2 1973.84 3593.39 1973.32C3594.23 1972.57 3594.91 1971.65 3595.37 1970.62C3595.83 1969.59 3596.07 1968.47 3596.07 1967.35C3596.07 1961.42 3590.21 1957.52 3585.11 1954.59C3578.54 1950.84 3572.13 1946.79 3565.86 1942.59C3572.69 1939.4 3578.62 1934.54 3583.09 1928.46C3588.7 1919.4 3591.01 1908.67 3589.66 1898.09C3589.31 1889.55 3586.13 1881.37 3580.61 1874.85C3577.43 1871.46 3573.44 1869.03 3570.11 1865.84C3561.47 1857.38 3558.54 1844.88 3554.95 1833.33C3550.2 1818.15 3542.77 1802.2 3528.93 1794.15C3522.26 1790.25 3514.48 1788.43 3507.97 1784.33C3501.45 1780.23 3495.99 1772.48 3498.27 1765.04C3499.78 1759.97 3504.48 1756.48 3507.66 1752.18C3511.46 1746.61 3512.92 1739.77 3511.72 1733.14C3510.52 1726.5 3506.76 1720.61 3501.25 1716.74C3497.51 1714.36 3492.91 1712.28 3492.15 1707.93C3489.23 1707.17 3486.58 1705.6 3484.51 1703.39C3482.43 1701.19 3481.02 1698.45 3480.43 1695.48C3479.3 1689.52 3479.3 1683.41 3480.43 1677.45C3481.75 1668.03 3483.04 1658.65 3484.32 1649.3C3486.55 1650.23 3488.94 1650.71 3491.35 1650.71C3493.76 1650.71 3496.14 1650.23 3498.37 1649.3C3502.74 1656.41 3507.82 1663.06 3513.52 1669.15C3528.91 1687.35 3540.89 1708.19 3548.89 1730.66C3551.77 1738.76 3554.7 1747.82 3562.17 1752.13C3564.75 1753.6 3567.68 1754.36 3570.21 1755.92C3573.32 1758.1 3576 1760.85 3578.09 1764.03C3584.15 1772.07 3590.21 1780.07 3596.22 1788.12L3596.53 1789.34C3596.69 1790.05 3596.96 1790.73 3597.34 1791.36C3598.45 1792.63 3600 1793.42 3601.68 1793.59C3620.27 1797.89 3641.14 1801.84 3657.25 1791.67C3671.8 1782.55 3678.17 1764.53 3690.49 1752.48C3699.23 1743.93 3711.61 1737.29 3714.08 1725.24C3711.14 1724.33 3708.24 1723.27 3705.4 1722.05C3707.92 1719.52 3710.45 1716.59 3713.88 1713.25C3718.87 1708.35 3723.37 1702.97 3727.32 1697.2C3731.59 1690.07 3734.98 1682.45 3737.42 1674.52C3747.16 1646.7 3756.92 1618.88 3766.73 1591.03C3771.37 1577.87 3776.02 1564.6 3781.88 1551.79C3787.94 1537.92 3795.12 1524.61 3801.74 1510.99C3818.81 1475.57 3831.99 1438.39 3841.04 1400.11C3842.64 1394.89 3843.18 1389.4 3842.61 1383.96C3841.19 1375.2 3834.57 1368.32 3828.26 1362.09C3821.91 1355.2 3814.67 1349.19 3806.74 1344.22C3802.75 1341.74 3798.32 1340.07 3793.68 1339.33C3789.05 1338.58 3784.32 1338.76 3779.76 1339.87C3766.83 1343.66 3758.69 1356.93 3755.71 1370.24C3752.73 1383.56 3753.84 1397.28 3752.58 1410.74C3750.76 1430.24 3744.09 1449.07 3742.48 1468.61C3741.62 1479.9 3742.48 1491.34 3741.11 1502.63C3738.63 1517.41 3733.49 1531.61 3725.96 1544.55C3709.57 1575.42 3687.39 1602.82 3660.64 1625.25C3657.55 1627.84 3654.37 1630.32 3651.34 1633.1C3651.34 1630.92 3651.69 1628.7 3652 1626.52C3649.8 1627.09 3647.65 1627.86 3645.58 1628.8C3645.84 1626.24 3645.58 1623.66 3644.82 1621.2C3640.78 1609.1 3622.8 1606.02 3619.56 1593.71C3619.02 1590.67 3618.74 1587.59 3618.7 1584.5C3617.64 1573.72 3610.32 1564.6 3607.79 1554.12C3605.47 1544.45 3607.24 1533.87 3602.74 1524.91C3598.91 1519.31 3594.39 1514.21 3589.3 1509.72C3583.23 1502.77 3578.86 1494.51 3576.52 1485.57C3575.86 1483.09 3575.26 1480.51 3574.55 1478.03C3575.32 1472.41 3574.69 1466.69 3572.73 1461.37C3568.14 1449.93 3556.26 1442.59 3551.97 1431C3548.63 1421.98 3550.1 1410.74 3543.78 1403.76C3540.43 1400.42 3536.32 1397.94 3531.81 1396.52C3508.69 1387.49 3484.43 1381.75 3459.72 1379.46C3445.88 1378.19 3430.62 1377.48 3420.72 1367.71C3409.15 1356.37 3408.6 1335.97 3395.06 1327.21C3383.13 1319.46 3366.26 1325.18 3357.02 1336.07C3355.63 1337.67 3354.34 1339.36 3353.18 1341.13C3351.49 1334.35 3351.13 1327.3 3352.11 1320.37C3352.11 1318.65 3352.47 1316.88 3352.62 1315.31C3375.43 1307.84 3394.84 1292.48 3407.38 1271.97C3407.38 1271.97 3407.38 1271.97 3407.38 1272.28L3407.99 1273.85C3409.45 1277.54 3411.78 1281.09 3415.21 1281.49C3417.5 1281.46 3419.71 1280.66 3421.48 1279.21C3424.53 1277.09 3427.34 1274.65 3429.86 1271.92C3431.14 1270.51 3432.36 1269.04 3433.5 1267.52C3435.83 1264.36 3437.83 1260.96 3439.46 1257.39C3441.97 1252.02 3443.67 1246.31 3444.51 1240.43C3445.42 1234.56 3445.52 1228.54 3446.54 1222.66C3447.48 1218.12 3448.71 1213.64 3450.22 1209.25C3450.73 1207.78 3451.23 1206.31 3451.69 1204.84C3452.14 1203.37 3452.8 1201.4 3453.3 1199.78C3456.47 1189.37 3458.17 1178.56 3458.36 1167.68C3458.36 1165.86 3458.36 1164.04 3458.36 1162.21C3458.17 1155.11 3456.58 1148.12 3453.66 1141.64C3450.75 1135.16 3446.57 1129.34 3441.38 1124.5C3432.69 1117.36 3421.17 1114.37 3414.81 1104.7C3410.67 1098.22 3409.76 1089.87 3407.33 1082.27C3404.71 1073.18 3399.6 1065.01 3392.58 1058.69C3385.57 1052.36 3376.92 1048.13 3367.62 1046.48C3356.43 1045.25 3345.19 1048.35 3336.2 1055.14V1055.14L3335.49 1055.69C3330.48 1059.53 3326.24 1064.27 3322.97 1069.67C3316.29 1067.82 3310.18 1064.34 3305.18 1059.54C3300.13 1054.83 3296.24 1048.91 3291.14 1044.35C3286.37 1039.98 3280.52 1036.96 3274.19 1035.63C3267.86 1034.29 3261.29 1034.68 3255.17 1036.76C3248.86 1039.29 3243.24 1043.29 3238.77 1048.42C3234.3 1053.55 3231.11 1059.67 3229.45 1066.27C3226.68 1076.7 3227.18 1088.7 3221.37 1097.41C3216.88 1104.19 3209.5 1107.54 3204.35 1113.71C3201.14 1117.62 3198.96 1122.27 3197.98 1127.23V1127.23C3197.37 1130.01 3197.08 1132.84 3197.12 1135.68V1135.68C3197.12 1136.95 3197.12 1138.22 3197.43 1139.43C3197.43 1139.43 3197.43 1139.84 3197.43 1140.04C3197.6 1141.43 3197.89 1142.8 3198.28 1144.14V1144.14C3199.72 1149.27 3202.29 1154.01 3205.81 1158.01C3209.15 1161.84 3213.31 1164.85 3217.99 1166.82C3219.9 1167.57 3221.86 1168.19 3223.85 1168.69L3229.86 1170.06L3231.98 1170.57C3224.73 1184.22 3220.7 1199.36 3220.21 1214.81C3219.72 1230.27 3222.78 1245.64 3229.15 1259.72C3229.15 1261.14 3228.8 1262.56 3228.65 1263.98C3227.82 1283.91 3228.7 1303.88 3231.27 1323.67C3231.98 1331.51 3232.38 1340.17 3227.59 1346.4C3225.4 1348.85 3222.94 1351.04 3220.26 1352.93C3222.99 1349.38 3225.77 1345.89 3228.6 1342.4C3221.47 1335.21 3210.21 1334.3 3200.1 1335.01C3180.55 1336.47 3161.56 1342.28 3144.53 1352.02C3133.22 1358.55 3121.6 1367.21 3108.66 1365.69C3101.03 1364.83 3093.51 1360.62 3086.08 1362.65C3081.91 1364.36 3078.01 1366.68 3074.51 1369.53C3071.75 1371.52 3068.41 1372.55 3065.01 1372.47C3057.08 1362.7 3044.81 1356.07 3035.31 1348.12C3024.5 1338.48 3014.61 1327.85 3005.76 1316.37C2989.39 1296.58 2973.07 1276.73 2957 1256.74C2943.47 1239.93 2929.57 1221.75 2927.2 1200.23C2926.96 1198.1 2926.84 1195.95 2926.84 1193.81C2927.17 1183.58 2928.46 1173.41 2930.68 1163.43C2931.28 1161.02 2931.28 1158.5 2930.68 1156.09C2929.17 1151.02 2923.36 1149.15 2918.36 1148.04C2919.01 1144.14 2919.47 1140.14 2919.72 1136.34C2922.55 1092.8 2919.47 1048.55 2928.66 1005.93C2932.15 989.523 2937.86 972.917 2949.63 961.019C2968.07 942.337 2998.94 937.832 3013.08 915.707C3024.9 897.279 3020.2 871.206 3005.35 854.954C2990.5 838.703 2967.61 832.07 2945.84 832.88C2939.73 832.67 2933.7 834.292 2928.51 837.538C2923.67 841.851 2920.04 847.37 2918 853.536L2896.33 906.341C2890.05 920.089 2884.75 934.267 2880.47 948.767C2874.41 970.942 2873.04 994.332 2868.24 1016.71C2868.24 1033.92 2857.18 1055.39 2851.12 1071.24C2844.35 1089.06 2837.02 1106.67 2830.91 1124.85C2829.39 1129.41 2824.09 1142.92 2820.8 1155.23C2819.56 1155.95 2818.41 1156.82 2817.37 1157.81C2814.73 1161.2 2812.33 1164.77 2810.2 1168.49C2805.6 1174.57 2798.12 1177.81 2793.07 1183.68C2788.02 1189.55 2786.96 1200.34 2793.98 1203.27C2795.4 1203.75 2796.88 1204.08 2798.37 1204.23C2799.29 1204.31 2800.21 1204.46 2801.1 1204.69C2808.68 1206.82 2811.66 1216.39 2810.55 1224.28C2809.44 1232.18 2805.5 1239.47 2804.84 1247.37C2803.48 1261.34 2811.66 1274.35 2819.54 1286.1C2827.7 1298.83 2836.71 1310.99 2846.52 1322.5C2853.64 1330.5 2861.67 1337.69 2868.85 1345.38C2896.18 1373.53 2917.9 1406.44 2942.46 1437.02C2951.29 1448.56 2961.33 1459.12 2972.41 1468.51C2979.65 1474.18 2987.22 1479.41 2995.1 1484.16L3037.33 1510.99C3042.12 1514.51 3047.54 1517.07 3053.29 1518.53C3055.17 1518.78 3057.07 1518.78 3058.95 1518.53C3059.2 1519.8 3059.41 1521.01 3059.71 1522.28C3062.99 1535.54 3070.22 1547.59 3071.03 1561.11C3071.83 1574.63 3070.62 1588.45 3071.58 1602.12C3072.49 1614.72 3075.27 1627.43 3075.98 1639.84C3077.39 1663.73 3071.53 1687.32 3065.87 1710.71C3057.34 1744.94 3052.18 1779.87 3035.56 1810.91C3030.91 1819.46 3025.46 1828.17 3025.46 1837.94C3025.46 1839.11 3025.46 1840.32 3025.76 1841.49L3018.18 1845.79C3015.96 1847.05 3013.74 1848.32 3011.72 1849.64C3002.12 1855.91 2991.86 1862.85 2987.92 1873.68C2984.74 1882.44 2986.2 1892.47 2982.37 1900.97C2982.18 1901.35 2981.98 1901.73 2981.76 1902.09C2977.72 1909.98 2969.68 1915.86 2967.87 1924.51C2966.5 1931.15 2969.13 1938.18 2967.87 1944.77C2967.87 1944.77 2967.87 1944.77 2967.87 1945.02C2966.72 1948.32 2965.8 1951.71 2965.14 1955.14C2965.08 1956.27 2965.19 1957.39 2965.44 1958.49C2966.4 1962.32 2968.52 1965.77 2971.5 1968.36C2973.32 1970.11 2975.3 1971.69 2977.41 1973.07C2979.57 1974.48 2981.79 1975.8 2984.08 1977.02L2985.4 1977.72C2987.32 1978.74 2989.24 1979.7 2991.21 1980.61L2992.52 1981.17C2994.79 1982.18 2997.12 1983.09 2999.44 1983.9L3001.06 1984.41C3002.88 1985.01 3004.75 1985.57 3006.61 1986.03L3007.88 1986.43L3009.04 1986.69L3014.09 1987.75L3015.96 1988.1C3018.18 1988.47 3020.46 1988.78 3022.78 1989.01H3024.8C3026.52 1989.01 3028.19 1989.27 3029.85 1989.32H3032.23C3034 1989.32 3035.71 1989.32 3037.28 1989.32H3039.1C3041.47 1989.32 3043.85 1988.96 3046.22 1988.66H3046.98C3049.1 1988.36 3051.22 1988 3053.34 1987.55L3054.96 1987.19C3056.93 1986.74 3058.9 1986.28 3060.87 1985.67L3061.93 1985.37C3064.31 1984.66 3066.68 1983.9 3069.01 1982.99C3077.05 1979.68 3084.85 1975.8 3092.35 1971.4C3097.4 1968.61 3102.45 1965.78 3107.5 1963.19C3111.25 1961.3 3115.09 1959.61 3119.02 1958.13C3128.57 1954.04 3138.97 1952.31 3149.33 1953.07C3154.44 1953.77 3159.51 1954.8 3164.49 1956.16C3164.49 1956.71 3164.49 1957.27 3164.49 1957.83C3168.6 1982.13 3172.65 2006.43 3176.66 2030.73C3183.28 2025.96 3190.27 2021.74 3197.58 2018.13C3196.21 2021.79 3195.31 2025.62 3194.9 2029.52C3194.6 2032.53 3194.6 2035.57 3194.9 2038.58C3195.35 2043.39 3196.36 2048.7 3193.48 2052.5C3191.72 2054.83 3188.43 2056.15 3187.47 2058.78C3186.77 2061.47 3186.6 2064.27 3186.97 2067.03C3186.76 2070.18 3185.43 2073.15 3183.23 2075.4C3181.02 2077.64 3178.08 2079.02 3174.94 2079.28C3176.39 2083.36 3176.42 2087.8 3175.04 2091.9C3173.66 2096 3170.94 2099.51 3167.32 2101.86C3165.2 2102.88 3163.23 2104.18 3161.46 2105.71C3159.73 2107.95 3158.57 2110.57 3158.07 2113.36C3151.39 2138.43 3137.66 2161.05 3118.51 2178.51C3111.33 2184.17 3104.78 2190.59 3098.96 2197.65C3095.37 2203.12 3092.41 2208.98 3090.12 2215.12C3076.65 2248.13 3062.98 2281.15 3049.1 2314.2C3041.42 2332.68 3033.95 2351.46 3031.52 2371.36C3025.46 2425.93 2976.96 2472.21 2986.05 2526.38C2987.89 2539.91 2993.34 2552.69 3001.82 2563.39C3011.92 2575.59 3027.07 2582.57 3042.23 2588.24C3081.18 2603.43 3122.25 2611.74 3163.17 2620.09L3227.43 2633.3C3240.04 2636.21 3252.84 2638.24 3265.73 2639.38C3281.24 2640.44 3297.15 2638.97 3312.26 2642.92C3321.6 2645.35 3330.54 2649.86 3340.19 2650.36C3348.48 2650.82 3358.68 2649.05 3363.58 2655.83C3368.48 2662.62 3364.69 2671.58 3369.34 2677.6C3376.82 2687.17 3395.06 2677.6 3403.19 2686.61C3405.41 2690.07 3407.11 2693.84 3408.24 2697.8C3409.48 2700.25 3411.2 2702.42 3413.29 2704.18C3413.79 2707.04 3413.99 2709.94 3413.9 2712.84C3412.85 2724.6 3410.4 2736.19 3406.63 2747.37C3400.56 2767.92 3394.52 2788.49 3388.49 2809.08C3386.19 2816.35 3384.5 2823.8 3383.44 2831.36C3383.06 2835.03 3383.06 2838.73 3383.44 2842.4C3384.5 2853.58 3390.91 2865.13 3401.57 2868.77C3409.84 2870.96 3418.64 2869.87 3426.13 2865.73C3433.35 2861.95 3440.13 2857.37 3446.33 2852.06C3457.52 2843.58 3467.35 2833.44 3475.48 2821.99C3500.74 2784.12 3492.56 2732.89 3510.29 2691.02C3522.06 2663.07 3545 2640.39 3552.63 2610.93C3554.41 2605.32 3554.62 2599.33 3553.23 2593.61C3550.05 2583.48 3539.29 2577.71 3529.24 2574.07H3528.78C3520.52 2571.12 3512.09 2568.7 3503.52 2566.83C3501.4 2566.37 3499.23 2566.02 3497.05 2565.66C3492.25 2561.74 3488.42 2556.75 3485.89 2551.08C3485.49 2548.07 3484.69 2545.12 3483.52 2542.32C3482.71 2541.12 3481.63 2540.12 3480.37 2539.42C3479.1 2538.71 3477.69 2538.32 3476.24 2538.27C3471.19 2537.77 3464.42 2539.59 3458.91 2539.19C3447.65 2538.38 3440.17 2527.29 3430.07 2522.17C3419.96 2517.06 3409 2518.33 3398.24 2519.09C3394.39 2519.61 3390.48 2519.37 3386.72 2518.38C3382.23 2516.31 3378.13 2513.48 3374.6 2510.02C3368.38 2505.18 3361.12 2501.84 3353.4 2500.29C3345.67 2498.73 3337.69 2499 3330.09 2501.06C3325.25 2503.02 3320.14 2504.18 3314.93 2504.51C3305.08 2503.95 3298.11 2495.14 3290.84 2488.46C3270.93 2470.18 3242.59 2465.37 3218.44 2453.37C3214.75 2451.99 3211.66 2449.34 3209.75 2445.88C3206.97 2438.99 3213.24 2432.11 3218.9 2427.4L3260.42 2392.82C3305.89 2354.95 3362.72 2326.45 3383.84 2270.91C3386.04 2263.46 3389.46 2256.43 3393.94 2250.1C3395.58 2248.17 3397.47 2246.47 3399.55 2245.04C3408.74 2239.07 3419.87 2236.9 3430.62 2238.96C3443.72 2241.9 3456.14 2247.33 3467.2 2254.96C3485.28 2265.93 3502.88 2277.74 3519.99 2290.4C3536.94 2302.54 3553.06 2315.8 3568.24 2330.09C3594.76 2355.41 3616.84 2385.43 3641.54 2412.72C3666.24 2440.01 3694.48 2465.47 3728.79 2478.53C3763.09 2491.6 3804.56 2491.04 3834.02 2469.12C3868.02 2443.8 3878.93 2398.54 3887.52 2357.03C3906.46 2338.7 3912.17 2310.8 3921.42 2286.15C3927.23 2270.5 3934.65 2255.77 3940.92 2240.18C3948.39 2221.85 3954.25 2202.92 3960.11 2184.03C3966.75 2165.07 3971.26 2145.42 3973.55 2125.46C3975.98 2093.92 3967.54 2060.35 3976.38 2030.73C3988.05 2028.15 3998.66 2021.57 4010.13 2017.72C4027.2 2012.1 4045.49 2013.01 4063.58 2013.11H4064.74C4070.97 2013.78 4077.24 2012.3 4082.52 2008.91C4088.58 2003.85 4089.54 1995.19 4089.85 1987.34C4090.55 1967.95 4089.34 1946.18 4074.84 1933.63ZM3342.87 1070.02C3338.69 1071.06 3334.37 1071.36 3330.09 1070.93L3342.87 1070.02Z" fill="url(#paint0_linear)"/>
<path d="M3362.77 1390.29C3356.66 1395.5 3349.49 1399.32 3341.76 1401.48L3305.94 1414.34C3286.49 1421.33 3266.18 1428.36 3245.67 1425.83C3234.2 1424.41 3185.05 1417.17 3177.62 1408.21C3166.31 1394.34 3205.96 1373.94 3219.5 1362.24C3222.57 1360.03 3225.41 1357.52 3227.99 1354.75C3233.04 1348.57 3232.38 1339.92 3231.68 1332.12C3229.11 1312.37 3228.23 1292.43 3229.05 1272.53C3229.44 1267.79 3230.12 1263.07 3231.07 1258.41C3236.12 1235.12 3257.75 1243.62 3274.82 1249.8C3295.38 1256.49 3315.25 1265.12 3334.18 1275.57C3339.95 1278.55 3344.96 1282.81 3348.83 1288.02C3356.31 1299.36 3353.33 1314.25 3352.11 1328.53C3351.05 1339.61 3351.1 1350.24 3358.03 1358.29C3361.51 1361.37 3364.7 1364.76 3367.57 1368.42C3369.19 1372.1 3369.6 1376.21 3368.73 1380.14C3367.87 1384.07 3365.78 1387.63 3362.77 1390.29Z" fill="#BE6F72"/>
<path d="M2867.99 1025.42C2873.04 1002.99 2874.15 979.853 2880.22 957.627C2884.5 943.176 2889.8 929.049 2896.08 915.353L2918.36 863.257C2920.4 857.106 2924.02 851.604 2928.87 847.309C2934.06 844.086 2940.09 842.466 2946.19 842.651C2967.97 841.841 2990.85 848.626 3005.71 864.675C3020.56 880.724 3025.26 906.695 3013.44 925.073C2999.29 947.198 2968.42 951.653 2949.98 970.284C2938.21 982.181 2932.5 998.737 2929.02 1015.09C2919.82 1057.62 2922.9 1101.71 2920.08 1145.15C2919.17 1158.67 2916.54 1174.11 2904.92 1181.1C2897.9 1184.55 2890.09 1186.07 2882.29 1185.5L2849.15 1186.06C2843.59 1186.06 2823.43 1189.55 2819.74 1185.35C2813.28 1178.01 2828.03 1141.46 2830.71 1133.3C2836.67 1115.23 2843.99 1097.61 2850.91 1079.84C2856.93 1064 2867.99 1042.58 2867.99 1025.42Z" fill="#BE6F72"/>
<path d="M3552.27 2615.94C3544.64 2645.2 3521.71 2667.98 3509.94 2695.88C3492.2 2737.65 3500.19 2788.73 3475.13 2826.5C3467 2837.97 3457.17 2848.13 3445.98 2856.62C3439.78 2861.91 3433 2866.48 3425.77 2870.24C3418.28 2874.38 3409.49 2875.47 3401.22 2873.28C3390.56 2869.63 3384.14 2858.09 3383.08 2846.95C3382.7 2843.3 3382.7 2839.62 3383.08 2835.97C3384.14 2828.43 3385.83 2820.99 3388.13 2813.74C3394.2 2793.25 3400.24 2772.73 3406.27 2752.18C3410.04 2741.03 3412.49 2729.47 3413.55 2717.75C3414.2 2704.99 3406.12 2688.39 3409.56 2676.49C3411.12 2671.12 3416.98 2666.36 3419.66 2661.86C3423.46 2655.37 3426.38 2648.41 3428.35 2641.15C3432.49 2627.03 3435.32 2611.94 3444.01 2600.04C3449.68 2592.98 3456.31 2586.76 3463.71 2581.56C3469.17 2576.76 3475.57 2573.16 3482.5 2570.98C3489.23 2569.79 3496.13 2570.12 3502.71 2571.94C3511.28 2573.78 3519.72 2576.18 3527.97 2579.13H3528.43C3538.53 2582.78 3549.24 2588.4 3552.42 2598.62C3553.97 2604.3 3553.92 2610.29 3552.27 2615.94V2615.94Z" fill="#3F3D56"/>
<path d="M4089.8 1993.52C4089.49 2001.37 4088.53 2010.13 4082.47 2015.04C4077.19 2018.42 4070.92 2019.9 4064.69 2019.24H4063.32C4045.29 2019.24 4026.95 2018.23 4009.87 2023.85C3996.89 2028.15 3984.97 2036.05 3971.43 2037.62C3952.79 2039.74 3935.26 2029.52 3918.74 2020.61C3903.18 2012.21 3887.22 2004.61 3870.9 1997.82C3860.19 1993.42 3838.31 1990.58 3833.16 1978.84C3831.39 1973.28 3829.91 1967.64 3828.71 1961.93C3827.87 1959.38 3826.84 1956.89 3825.63 1954.49C3822.6 1949.36 3820.67 1943.65 3819.97 1937.73C3819.99 1931.83 3822.03 1926.11 3825.73 1921.53C3829.85 1916.64 3834.9 1912.61 3840.58 1909.69C3846.26 1906.76 3852.46 1904.98 3858.82 1904.47C3871.55 1903.48 3884.36 1904.16 3896.91 1906.49L4021.29 1924.41C4030.89 1925.78 4040.54 1927.15 4049.99 1929.48C4058.96 1931.04 4067.42 1934.75 4074.64 1940.31C4089.34 1952.66 4090.55 1974.38 4089.8 1993.52Z" fill="#3F3D56"/>
<path d="M3980.47 2025.92C3965.32 2057.97 3976.23 2095.89 3973.5 2131.33C3971.21 2151.25 3966.7 2170.84 3960.06 2189.75C3954.2 2208.59 3948.34 2227.47 3940.86 2245.75C3934.6 2260.94 3927.17 2276.12 3921.36 2291.62C3912.12 2316.32 3906.21 2344.12 3887.47 2362.5C3878.88 2403.91 3867.97 2449.17 3833.97 2474.28C3804.41 2496.15 3763.24 2496.91 3728.73 2483.7C3694.23 2470.48 3666.19 2445.17 3641.49 2417.88C3616.78 2390.59 3594.71 2360.87 3568.18 2335.46C3552.98 2321.16 3536.83 2307.92 3519.84 2295.82C3502.73 2283.36 3485.13 2271.65 3467.05 2260.68C3455.97 2253.09 3443.56 2247.68 3430.47 2244.74C3419.72 2242.67 3408.59 2244.85 3399.4 2250.81C3397.31 2252.24 3395.43 2253.94 3393.79 2255.87C3389.3 2262.18 3385.88 2269.2 3383.69 2276.63C3362.47 2332.02 3305.54 2360.47 3260.07 2398.24L3218.54 2432.72C3212.88 2437.42 3206.62 2444.31 3209.4 2451.14C3211.31 2454.6 3214.39 2457.26 3218.09 2458.64C3242.24 2470.59 3270.58 2475.39 3290.48 2493.62C3297.76 2500.3 3304.73 2509.11 3314.58 2509.62C3319.78 2509.31 3324.9 2508.17 3329.73 2506.23C3337.34 2504.17 3345.31 2503.9 3353.03 2505.44C3360.75 2506.99 3368.01 2510.31 3374.24 2515.14C3377.78 2518.59 3381.88 2521.42 3386.37 2523.49C3390.12 2524.49 3394.04 2524.73 3397.89 2524.2C3408.65 2523.44 3420.06 2522.48 3429.71 2527.29C3439.36 2532.1 3447.29 2543.44 3458.56 2544.25C3464.06 2544.65 3470.63 2542.83 3475.89 2543.34C3477.33 2543.38 3478.75 2543.77 3480.01 2544.48C3481.28 2545.18 3482.36 2546.18 3483.16 2547.39C3484.34 2550.17 3485.14 2553.1 3485.54 2556.1C3487.61 2563.23 3494.58 2567.59 3499.13 2573.46C3506.1 2582.47 3507.11 2594.72 3506.4 2606.12C3504.11 2641.73 3488.27 2675.11 3462.15 2699.37C3454.73 2706.97 3445.27 2712.25 3434.92 2714.56C3429.73 2715.65 3424.34 2715.07 3419.5 2712.92C3414.66 2710.77 3410.61 2707.14 3407.94 2702.56C3406.81 2698.62 3405.11 2694.87 3402.89 2691.42C3394.75 2682.46 3376.52 2691.98 3369.04 2682.41C3364.39 2676.44 3367.72 2666.87 3363.28 2660.69C3358.83 2654.52 3348.12 2655.63 3339.89 2655.27C3330.24 2654.77 3321.3 2650.21 3311.95 2647.83C3296.8 2643.88 3280.93 2645.35 3265.42 2644.29C3252.53 2643.15 3239.74 2641.12 3227.13 2638.21L3162.87 2625.05C3121.95 2616.7 3080.88 2608.24 3041.93 2593.31C3027.02 2587.64 3012.02 2580.65 3001.51 2568.5C2993.04 2557.82 2987.6 2545.06 2985.75 2531.54C2976.61 2477.52 3025.1 2431.35 3031.22 2376.92C3033.39 2357.08 3041.32 2338.35 3048.8 2319.92C3062.51 2286.98 3076.18 2254.02 3089.82 2221.04C3092.03 2214.9 3094.91 2209.03 3098.41 2203.52C3104.22 2196.48 3110.78 2190.08 3117.96 2184.44C3137.1 2167.03 3150.84 2144.46 3157.51 2119.43C3158.01 2116.65 3159.17 2114.02 3160.9 2111.79C3162.69 2110.28 3164.66 2109.01 3166.76 2107.99C3170.37 2105.64 3173.08 2102.13 3174.47 2098.05C3175.85 2093.96 3175.82 2089.53 3174.39 2085.46C3177.52 2085.2 3180.46 2083.82 3182.67 2081.57C3184.88 2079.32 3186.2 2076.36 3186.41 2073.21C3186.04 2070.47 3186.22 2067.68 3186.92 2065.01C3188.13 2062.37 3191.16 2061.06 3192.93 2058.73C3195.81 2054.93 3194.8 2049.62 3194.34 2044.86C3194.04 2041.84 3194.04 2038.81 3194.34 2035.79C3195.45 2025.07 3200.23 2015.07 3207.88 2007.49C3219.96 1995.6 3237.13 1998.68 3253.8 1995.85C3270.43 1992.25 3286.68 1987.05 3302.3 1980.31C3346.14 1963 3392.29 1952.3 3439.26 1948.56C3486.46 1944.84 3533.87 1952.41 3577.58 1970.64C3583.94 1973.22 3589.94 1976.62 3595.41 1980.76C3599.3 1983.77 3602.49 1987.59 3604.76 1991.95C3606.63 1997.31 3608.92 2002.51 3611.63 2007.49C3617.04 2014.89 3627.24 2017.26 3633.15 2024.25C3639.06 2031.24 3639.57 2043.03 3644.47 2051.69C3651.49 2064.04 3667.76 2069.77 3672.61 2083.18C3674.12 2087.43 3674.33 2092.09 3675.44 2096.5C3678.16 2107.53 3686.35 2116.24 3693.57 2124.95C3720.06 2156.69 3737.01 2195.32 3742.48 2236.33C3744.09 2210.66 3761.32 2187.93 3782.89 2173.75C3788.7 2169.96 3795.42 2165.76 3796.58 2158.87C3798.05 2150.16 3789.61 2142.42 3790.17 2133.56C3790.78 2129.23 3792.52 2125.14 3795.22 2121.71C3804.85 2107.73 3815.41 2094.41 3826.84 2081.87C3833.06 2075.03 3840.03 2066.68 3837.45 2057.67C3835.48 2050.93 3828.61 2046.98 3824.82 2041.11C3822.61 2037.61 3821.48 2033.53 3821.57 2029.39C3821.66 2025.25 3822.97 2021.22 3825.33 2017.82C3828.86 2013.01 3834.47 2009.52 3836.19 2003.8C3838.16 1997.06 3833.76 1989.77 3835.13 1982.84C3836.97 1977.28 3840.64 1972.52 3845.54 1969.32C3852.24 1963.2 3859.86 1958.18 3868.12 1954.44C3881.45 1949.37 3896.31 1951.25 3910.45 1953.22C3934.09 1956.51 3960.62 1961.57 3973.95 1981.42C3982.49 1993.82 3986.84 2012.66 3980.47 2025.92Z" fill="#65617D"/>
<path opacity="0.1" d="M4089.8 1993.52C4089.49 2001.37 4088.53 2010.13 4082.47 2015.04C4077.19 2018.42 4070.92 2019.9 4064.69 2019.24H4063.32C4065.39 2008.71 4078.18 2002.68 4080.4 1992C4080.78 1988.72 4080.48 1985.4 4079.53 1982.23C4078.57 1979.07 4076.98 1976.14 4074.84 1973.62C4064.03 1958.99 4046.65 1950.89 4029.37 1944.97C3980.56 1928.2 3928.27 1924.28 3877.51 1933.58C3863.71 1935.83 3850.28 1939.97 3837.6 1945.88C3833.4 1948.52 3829.35 1951.39 3825.48 1954.49C3822.45 1949.36 3820.52 1943.65 3819.82 1937.73C3819.84 1931.83 3821.87 1926.11 3825.58 1921.53C3829.7 1916.64 3834.75 1912.61 3840.43 1909.69C3846.1 1906.76 3852.31 1904.98 3858.67 1904.47C3871.4 1903.48 3884.21 1904.16 3896.76 1906.49L4021.14 1924.41C4030.74 1925.78 4040.39 1927.15 4049.84 1929.48C4058.81 1931.04 4067.27 1934.75 4074.49 1940.31C4089.34 1952.66 4090.55 1974.38 4089.8 1993.52Z" fill="black"/>
<path opacity="0.1" d="M3552.27 2615.94C3544.64 2645.2 3521.71 2667.98 3509.94 2695.88C3492.2 2737.65 3500.19 2788.73 3475.13 2826.5C3467 2837.97 3457.17 2848.13 3445.98 2856.62C3439.78 2861.91 3433 2866.48 3425.77 2870.24C3418.28 2874.38 3409.49 2875.47 3401.22 2873.28C3390.56 2869.63 3384.14 2858.09 3383.08 2846.95C3382.7 2843.3 3382.7 2839.62 3383.08 2835.97L3383.39 2836.78C3387.78 2847.41 3394.96 2858.55 3406.27 2860.42C3410.52 2860.73 3414.78 2860.15 3418.8 2858.73C3422.82 2857.31 3426.5 2855.08 3429.61 2852.17C3446.28 2838.75 3455.98 2818.75 3465.23 2799.46C3472.46 2785.55 3478.19 2770.91 3482.3 2755.77C3484.32 2747.16 3485.28 2738.36 3487.35 2729.75C3496.95 2687.93 3529.64 2653.81 3536.86 2611.43C3537.45 2608.52 3537.59 2605.53 3537.27 2602.57C3536.31 2598.72 3534.85 2595 3532.92 2591.53C3531.17 2587.62 3529.88 2583.5 3529.08 2579.28C3539.19 2582.93 3549.9 2588.55 3553.08 2598.77C3554.38 2604.46 3554.1 2610.4 3552.27 2615.94Z" fill="black"/>
<path opacity="0.1" d="M3475.99 2543.34C3471.31 2555.59 3463.44 2566.36 3453.2 2574.52C3438.82 2585.51 3421.98 2592.8 3404.15 2595.79C3395.85 2597.91 3387.14 2597.81 3378.89 2595.48C3367.68 2591.59 3359.59 2581.05 3348.12 2578.02C3339.94 2575.79 3331.15 2577.76 3322.86 2576.55C3307.96 2574.47 3296.39 2563.08 3284.37 2553.97C3247.54 2526.23 3199.19 2517.26 3162.37 2489.52C3160.73 2488.51 3159.37 2487.1 3158.42 2485.42C3157.72 2483.6 3157.46 2481.64 3157.67 2479.7C3157.8 2462.87 3161.58 2446.27 3168.73 2431.05C3174.59 2420.42 3181.57 2410.46 3189.54 2401.33C3222.53 2360.82 3255.67 2320.02 3295.18 2285.84C3311.75 2271.52 3329.84 2258.15 3350.75 2251.67C3362.37 2248.08 3385.31 2244.68 3399.45 2250.76C3397.36 2252.19 3395.48 2253.89 3393.84 2255.82C3389.35 2262.13 3385.93 2269.15 3383.74 2276.58C3362.47 2332.02 3305.54 2360.47 3260.07 2398.24L3218.54 2432.72C3212.88 2437.42 3206.62 2444.31 3209.4 2451.14C3211.31 2454.6 3214.39 2457.26 3218.09 2458.64C3242.24 2470.59 3270.58 2475.39 3290.48 2493.62C3297.76 2500.3 3304.73 2509.11 3314.58 2509.62C3319.78 2509.31 3324.9 2508.17 3329.73 2506.23C3337.34 2504.17 3345.31 2503.9 3353.03 2505.44C3360.75 2506.99 3368.01 2510.31 3374.24 2515.14C3377.78 2518.6 3381.88 2521.42 3386.37 2523.49C3390.12 2524.49 3394.04 2524.73 3397.89 2524.2C3408.65 2523.44 3420.06 2522.48 3429.71 2527.29C3439.36 2532.1 3447.29 2543.44 3458.56 2544.25C3464.17 2544.65 3470.73 2542.73 3475.99 2543.34Z" fill="black"/>
<path d="M3011.36 1856.22C3001.77 1862.39 2991.56 1869.38 2987.62 1880.11C2984.39 1888.87 2985.9 1898.9 2982.01 1907.4C2978.12 1915.91 2969.38 1921.83 2967.46 1930.94C2966.1 1937.58 2968.78 1944.56 2967.46 1951.2C2966.32 1954.64 2965.39 1958.16 2964.68 1961.73C2964.18 1969.27 2970.65 1975.4 2976.96 1979.6C2990.4 1988.36 3005.71 1993.84 3021.66 1995.6C3037.6 1997.36 3053.73 1995.35 3068.75 1989.72C3082.24 1984.66 3094.42 1976.41 3107.35 1969.93C3119.96 1962.65 3134.39 1959.14 3148.93 1959.8C3157.26 1960.71 3165.25 1963.75 3173.58 1964.87C3177.7 1965.68 3181.95 1965.48 3185.97 1964.28C3190 1963.08 3193.67 1960.92 3196.67 1957.98C3199.24 1954.42 3200.97 1950.31 3201.72 1945.98C3208.74 1918.19 3205.56 1888.72 3198.89 1860.77C3192.22 1832.83 3182.12 1805.94 3175 1778.15C3169.94 1757.54 3166.05 1736.43 3157.62 1716.94C3149.18 1697.45 3134.98 1679.32 3115.13 1671.88C3113.56 1671.11 3111.79 1670.88 3110.08 1671.22C3108.8 1671.76 3107.68 1672.59 3106.79 1673.65C3091.09 1690.33 3079.26 1710.28 3072.14 1732.08C3064.21 1756.33 3062.03 1782.05 3054.76 1806.4C3051.63 1816.53 3047.59 1830.09 3039.6 1837.84C3031.62 1845.59 3020.41 1850.4 3011.36 1856.22Z" fill="#3F3D56"/>
<path opacity="0.1" d="M3201.87 1945.83C3201.02 1950.18 3199.21 1954.28 3196.57 1957.83C3193.57 1960.78 3189.9 1962.94 3185.87 1964.13C3181.85 1965.32 3177.59 1965.51 3173.48 1964.66C3165.19 1963.65 3157.21 1960.56 3148.88 1959.6C3134.34 1958.93 3119.91 1962.44 3107.3 1969.73C3094.37 1976.21 3082.04 1984.26 3068.65 1989.47C3049.07 1996.91 3027.67 1998.13 3007.37 1992.96C2996.59 1990.25 2986.34 1985.73 2977.06 1979.6C2970.7 1975.45 2964.28 1969.47 2964.78 1961.73C2965.49 1958.18 2966.42 1954.68 2967.56 1951.25C2968.88 1944.61 2966.25 1937.63 2967.56 1931C2969.48 1921.88 2978.27 1915.81 2982.11 1907.4C2985.95 1899 2984.49 1888.92 2987.67 1880.17C2991.61 1869.38 3001.87 1862.45 3011.46 1856.22C3021.06 1849.99 3032.48 1845.23 3040.16 1837.69C3041.15 1836.51 3042.05 1835.26 3042.84 1833.94C3048.37 1825.38 3052.44 1815.95 3054.86 1806.05C3062.29 1781.64 3064.31 1755.98 3072.19 1731.67C3079.34 1709.9 3091.19 1689.97 3106.89 1673.3C3107.73 1672.21 3108.85 1671.37 3110.13 1670.87C3111.83 1670.52 3113.6 1670.74 3115.18 1671.48C3134.98 1678.97 3149.18 1697.1 3157.67 1716.59C3166.15 1736.08 3169.74 1757.09 3175.04 1777.75C3182.12 1805.54 3192.27 1832.52 3198.94 1860.42C3205.61 1888.32 3208.89 1917.98 3201.87 1945.83Z" fill="black"/>
<path opacity="0.1" d="M3352.11 1328.37C3328.36 1335.94 3302.65 1334.44 3279.94 1324.16C3257.22 1313.88 3239.1 1295.54 3229.05 1272.68C3229.44 1267.94 3230.12 1263.22 3231.07 1258.56C3236.12 1235.27 3257.74 1243.77 3274.82 1249.95C3295.37 1256.64 3315.25 1265.27 3334.18 1275.72C3339.95 1278.7 3344.96 1282.96 3348.83 1288.18C3356.31 1299.36 3353.33 1314.25 3352.11 1328.37Z" fill="black"/>
<path d="M3321.6 1328.07C3377.4 1328.07 3422.64 1282.74 3422.64 1226.81C3422.64 1170.89 3377.4 1125.56 3321.6 1125.56C3265.8 1125.56 3220.56 1170.89 3220.56 1226.81C3220.56 1282.74 3265.8 1328.07 3321.6 1328.07Z" fill="#BE6F72"/>
<path opacity="0.1" d="M3595.77 1983.5C3595.77 1991.9 3584.4 1994.58 3575.97 1994.13C3545.65 1992.36 3516 1984 3485.99 1986.53C3448.05 1989.98 3413.19 2010.99 3375.15 2012.91C3360.5 2013.67 3345.6 2011.49 3331.15 2014.18C3312.46 2017.67 3295.79 2029.06 3276.74 2030.68C3260.22 2032.1 3243.9 2025.87 3227.38 2026.53C3215.83 2027.22 3204.57 2030.43 3194.39 2035.95C3195.5 2025.23 3200.29 2015.22 3207.93 2007.65C3220.01 1995.75 3237.18 1998.84 3253.86 1996C3270.49 1992.4 3286.73 1987.2 3302.35 1980.46C3346.19 1963.15 3392.34 1952.45 3439.31 1948.71C3486.48 1944.95 3533.87 1952.47 3577.58 1970.64C3583.94 1973.22 3589.94 1976.62 3595.42 1980.76C3595.69 1981.65 3595.81 1982.57 3595.77 1983.5V1983.5Z" fill="black"/>
<path d="M3274.87 1411.71L3233.95 1396.52L3216.67 1390.14C3209.63 1387.18 3202.22 1385.21 3194.65 1384.27C3174.84 1382.75 3156.2 1395.96 3145.64 1412.82C3135.08 1429.68 3131.09 1449.78 3127.71 1469.37C3123.06 1496.17 3119.12 1523.07 3115.89 1550.07C3112.41 1574.46 3110.63 1599.05 3110.58 1623.69C3111.74 1686.36 3124.98 1748.18 3139.53 1809.19C3146.66 1836.23 3152.04 1863.71 3155.65 1891.46C3156.86 1902.9 3157.41 1914.39 3158.63 1925.88C3159.94 1938.79 3162.06 1951.55 3164.18 1964.36L3176.36 2037.11C3191.51 2026.33 3208.74 2016.86 3227.38 2016.3C3243.9 2015.7 3260.27 2021.87 3276.74 2020.45C3295.69 2018.89 3312.46 2007.49 3331.15 2004C3345.6 2001.32 3360.5 2003.44 3375.2 2002.73C3413.19 2000.81 3448.1 1979.75 3485.99 1976.36C3516.05 1973.62 3545.91 1982.13 3576.02 1983.9C3584.4 1984.41 3595.77 1981.72 3595.77 1973.27C3595.77 1967.4 3589.91 1963.5 3584.81 1960.56C3560.75 1946.05 3537.87 1929.68 3516.35 1911.61C3496.45 1895.81 3476.24 1879.61 3462.55 1858.24C3429.56 1806.86 3440.88 1737.34 3412.74 1683.12C3389.85 1639.08 3412.74 1581.36 3412.74 1531.69C3412.74 1506.94 3412.74 1481.88 3406.93 1457.83C3403.3 1444.38 3398.77 1431.19 3393.39 1418.34L3373.74 1368.47C3373.33 1367.01 3372.52 1365.7 3371.41 1364.67C3370.09 1363.76 3368.52 1363.28 3366.92 1363.31C3355.12 1362.6 3343.47 1366.34 3334.28 1373.79C3325.04 1381.33 3319.13 1392.16 3310.03 1400.01C3300.08 1408.67 3287.25 1416.26 3274.87 1411.71Z" fill="#E3E8F4"/>
<path d="M3340.9 1382.95C3344.13 1369.08 3347.62 1354.65 3356.86 1343.82C3366.11 1332.98 3382.98 1327.26 3394.9 1335.01C3408.44 1343.82 3409 1364.17 3420.57 1375.51C3430.67 1385.23 3445.83 1385.99 3459.57 1387.25C3484.28 1389.51 3508.54 1395.23 3531.66 1404.26C3536.17 1405.67 3540.27 1408.13 3543.63 1411.45C3549.95 1418.64 3548.68 1429.68 3551.82 1438.64C3556.11 1450.18 3567.98 1457.53 3572.58 1469.02C3577.63 1481.78 3572.58 1496.05 3568.34 1509.17C3560.71 1532.71 3555.91 1557.16 3548.48 1580.8C3541.06 1604.45 3530.5 1627.74 3513.12 1645.56C3505.44 1653.45 3494.02 1660.74 3483.92 1656.04L3480.03 1684.13C3478.89 1690.07 3478.89 1696.17 3480.03 1702.11C3480.62 1705.08 3482.03 1707.82 3484.1 1710.03C3486.17 1712.23 3488.82 1713.8 3491.75 1714.56C3492.51 1718.92 3497.1 1720.99 3500.84 1723.37C3503.6 1725.26 3505.96 1727.68 3507.78 1730.49C3509.6 1733.31 3510.84 1736.45 3511.44 1739.75C3512.03 1743.04 3511.97 1746.43 3511.26 1749.7C3510.54 1752.97 3509.18 1756.07 3507.26 1758.81C3504.08 1763.11 3499.38 1766.51 3497.86 1771.62C3495.59 1779.01 3500.99 1786.81 3507.56 1790.86C3514.13 1794.91 3521.86 1796.78 3528.53 1800.68C3542.37 1808.68 3549.8 1824.42 3554.54 1839.71C3558.08 1851.26 3561.01 1863.76 3569.7 1872.17C3573.03 1875.36 3577.03 1877.79 3580.21 1881.13C3585.72 1887.65 3588.9 1895.83 3589.25 1904.37C3590.63 1914.95 3588.31 1925.68 3582.68 1934.74C3572.58 1949.22 3553.74 1953.52 3537.22 1960.06C3510.39 1971.09 3488.31 1990.84 3464.67 2007.65C3455.04 2015.42 3443.7 2020.76 3431.58 2023.24C3415.21 2025.42 3399.1 2018.18 3382.63 2017.52C3372.78 2017.61 3362.97 2018.9 3353.43 2021.37L3323.12 2027.95C3324.73 2004.41 3311.8 1980.81 3304.58 1958.38C3290.94 1916.16 3288.41 1871 3291.64 1826.75C3294.88 1782.5 3303.87 1738.86 3312.76 1695.42C3318.97 1665.05 3318.37 1633.3 3327.92 1603.79C3336.86 1575.39 3349.64 1548.1 3354.34 1518.53C3362.02 1470.69 3330.09 1430.14 3340.9 1382.95Z" fill="#3F3D56"/>
<path d="M3570.71 1476.56C3573.5 1481.71 3575.46 1487.26 3576.52 1493.02C3578.86 1501.93 3583.23 1510.18 3589.3 1517.11C3594.38 1521.61 3598.9 1526.71 3602.74 1532.3C3607.39 1541.11 3605.62 1551.84 3607.79 1561.46C3610.32 1571.94 3617.64 1581.06 3618.7 1591.84C3618.73 1594.93 3619.02 1598.01 3619.56 1601.05C3622.85 1613.31 3640.83 1616.24 3644.82 1628.49C3647.5 1636.44 3642.9 1645.1 3643.76 1653.45C3644.39 1656.04 3644.54 1658.71 3644.22 1661.35C3643.07 1664.34 3641.07 1666.91 3638.46 1668.74C3621.74 1684.75 3610.16 1705.39 3605.22 1728.03C3600.35 1750.54 3597.79 1773.49 3597.59 1796.53L3577.83 1770.35C3575.74 1767.18 3573.07 1764.43 3569.95 1762.25C3567.43 1760.73 3564.5 1759.97 3561.92 1758.46C3554.44 1754.2 3551.51 1745.19 3548.63 1737.09C3540.63 1714.67 3528.65 1693.88 3513.27 1675.73C3505.24 1666.26 3495.89 1656.74 3494.12 1644.44C3493.59 1638.79 3493.9 1633.09 3495.03 1627.53C3500.09 1594.37 3505.49 1560.4 3521.61 1530.99C3529.13 1517.22 3538.88 1504.76 3546.11 1490.79C3550.96 1481.52 3557.78 1457.42 3570.71 1476.56Z" fill="#3F3D56"/>
<path d="M3072.34 1508.41C3072.43 1512.67 3071.35 1516.87 3069.21 1520.56C3067.28 1522.8 3064.76 1524.46 3061.94 1525.35C3059.12 1526.25 3056.11 1526.34 3053.24 1525.62C3047.49 1524.17 3042.07 1521.63 3037.28 1518.13C3023.2 1509.22 3009.12 1500.29 2995.05 1491.34C2987.19 1486.6 2979.61 1481.39 2972.36 1475.75C2961.28 1466.38 2951.24 1455.84 2942.4 1444.31C2917.85 1413.93 2896.13 1380.98 2868.8 1353.18C2861.37 1345.59 2853.64 1338.3 2846.47 1330.35C2836.66 1318.86 2827.65 1306.71 2819.49 1294C2811.61 1282.3 2803.43 1269.34 2804.79 1255.37C2805.6 1247.47 2809.39 1240.18 2810.5 1232.33C2811.61 1224.49 2808.63 1214.92 2801.05 1212.79C2800.16 1212.57 2799.24 1212.41 2798.32 1212.34C2796.83 1212.18 2795.35 1211.85 2793.93 1211.37C2786.91 1208.44 2787.97 1197.55 2793.02 1191.83C2798.07 1186.11 2805.55 1182.92 2810.15 1176.64C2812.28 1172.92 2814.68 1169.35 2817.32 1165.96C2820.7 1163.05 2824.74 1161.02 2829.09 1160.04C2858.23 1151.43 2889.06 1150.26 2918.76 1156.64C2923.81 1157.76 2929.57 1159.78 2931.09 1164.69C2931.69 1167.09 2931.69 1169.59 2931.09 1171.98C2928.86 1181.97 2927.58 1192.14 2927.25 1202.36C2927.24 1204.49 2927.36 1206.62 2927.6 1208.74C2929.98 1230.21 2943.87 1248.38 2957.41 1265.14C2973.47 1285.09 2989.79 1304.88 3006.16 1324.63C3015.01 1336.07 3024.91 1346.66 3035.71 1356.27C3045.82 1364.67 3058.9 1371.46 3066.78 1382.24C3073.2 1390.95 3071.13 1402.85 3071.83 1413.33C3074.18 1444.97 3074.35 1476.74 3072.34 1508.41V1508.41Z" fill="#3F3D56"/>
<path d="M3713.93 1719.62C3718.92 1714.76 3723.42 1709.42 3727.37 1703.68C3731.62 1696.56 3735.01 1688.96 3737.48 1681.05L3766.78 1597.76C3771.42 1584.6 3776.07 1571.39 3781.93 1558.58C3787.99 1544.76 3795.17 1531.44 3801.79 1518.08C3818.81 1482.9 3831.97 1445.98 3841.04 1407.96C3842.63 1402.74 3843.17 1397.24 3842.61 1391.81C3841.19 1383.05 3834.57 1376.22 3828.26 1369.99C3821.91 1363.12 3814.67 1357.12 3806.74 1352.17C3802.75 1349.69 3798.32 1348.02 3793.68 1347.28C3789.05 1346.53 3784.32 1346.71 3779.76 1347.81C3766.83 1351.61 3758.69 1364.88 3755.71 1378.19C3752.73 1391.51 3753.84 1405.13 3752.58 1418.69C3750.76 1438.13 3744.09 1456.92 3742.48 1476.41C3741.62 1487.7 3742.48 1499.09 3741.11 1510.33C3738.63 1525.09 3733.49 1539.27 3725.96 1552.2C3709.54 1582.99 3687.36 1610.32 3660.64 1632.7C3653.31 1638.11 3646.72 1644.46 3641.03 1651.58C3636.28 1658.7 3633.07 1666.74 3631.59 1675.17C3628.23 1688.02 3629.69 1701.65 3635.68 1713.5C3643.91 1727.57 3659.73 1733.75 3674.83 1736.89C3695.24 1741.14 3699.94 1734.15 3713.93 1719.62Z" fill="#BE6F72"/>
<path d="M3322.21 1080.1C3326.56 1071.9 3333.22 1065.18 3341.36 1060.76C3349.5 1056.34 3358.76 1054.42 3367.98 1055.24C3377.27 1056.89 3385.91 1061.11 3392.93 1067.42C3399.94 1073.74 3405.06 1081.9 3407.69 1090.98C3410.06 1098.52 3411.02 1106.88 3415.16 1113.36C3421.43 1123.13 3433.05 1125.96 3441.74 1133.05C3446.92 1137.88 3451.1 1143.7 3454.01 1150.17C3456.93 1156.64 3458.52 1163.62 3458.71 1170.72C3459.19 1185.21 3456.91 1199.66 3451.99 1213.3C3449.9 1219.11 3448.21 1225.07 3446.94 1231.12C3445.93 1236.99 3445.83 1242.96 3444.92 1248.84C3443.8 1256.45 3441.17 1263.77 3437.19 1270.35C3433.21 1276.93 3427.95 1282.65 3421.73 1287.16C3419.96 1288.61 3417.75 1289.41 3415.47 1289.44C3411.53 1288.99 3409.1 1284.38 3407.64 1280.23C3399.6 1256.99 3401.52 1228.59 3386.72 1210.06C3379.99 1202.58 3371.85 1196.51 3362.77 1192.18C3359.07 1189.79 3354.9 1188.22 3350.55 1187.58C3344.14 1187.92 3337.98 1190.18 3332.87 1194.06C3322.2 1201.23 3310.37 1206.47 3297.91 1209.55C3291.69 1211.03 3285.22 1211.09 3278.97 1209.74C3272.72 1208.4 3266.85 1205.67 3261.79 1201.75C3254.81 1195.98 3249.71 1187.32 3241.98 1182.82C3234.25 1178.31 3226.17 1178.57 3218.54 1175.48C3213.68 1173.41 3209.35 1170.25 3205.9 1166.25C3202.44 1162.25 3199.93 1157.51 3198.58 1152.39C3197.22 1147.27 3197.05 1141.91 3198.08 1136.72C3199.1 1131.52 3201.3 1126.63 3204.5 1122.42C3209.55 1116.34 3217.03 1112.9 3221.52 1106.17C3227.33 1097.46 3226.83 1085.51 3229.61 1075.08C3231.25 1068.48 3234.44 1062.37 3238.91 1057.26C3243.38 1052.14 3249.01 1048.17 3255.32 1045.67C3261.44 1043.59 3268.01 1043.19 3274.33 1044.51C3280.66 1045.84 3286.52 1048.84 3291.29 1053.21C3296.34 1057.77 3300.38 1063.64 3305.33 1068.4C3310.22 1073.09 3316.21 1076.47 3322.74 1078.24C3329.27 1080.01 3336.14 1080.11 3342.72 1078.53" fill="#3F3D56"/>
<path opacity="0.1" d="M3405.26 1825.28C3402.32 1827.91 3400.24 1831.36 3399.28 1835.19C3398.33 1839.02 3398.54 1843.05 3399.91 1846.75C3401.02 1849.13 3453.15 1839.06 3458.66 1838.3C3472.4 1836.32 3496.5 1837.28 3505.74 1824.68C3522.21 1802.35 3471.19 1807.31 3461.84 1808.12C3444.06 1809.64 3418.8 1812.07 3405.26 1825.28Z" fill="black"/>
<path d="M2930.99 1172.19C2928.76 1182.17 2927.47 1192.34 2927.15 1202.56C2911.99 1205.65 2896.23 1200.59 2881.68 1195.53L2839.9 1181.25C2837.36 1179.62 2834.3 1179.03 2831.33 1179.58C2828.36 1180.13 2825.72 1181.8 2823.94 1184.24C2817.22 1191.22 2807.97 1204.49 2798.68 1212.33C2797.18 1212.18 2795.71 1211.85 2794.28 1211.37C2787.26 1208.44 2788.32 1197.55 2793.37 1191.83C2798.43 1186.11 2805.9 1182.92 2810.5 1176.64C2812.64 1172.92 2815.03 1169.35 2817.67 1165.96C2821.06 1163.05 2825.1 1161.02 2829.44 1160.04C2858.58 1151.43 2889.41 1150.26 2919.12 1156.64C2924.17 1157.76 2929.93 1159.78 2931.44 1164.69C2931.93 1167.19 2931.78 1169.77 2930.99 1172.19Z" fill="#3F3D56"/>
<path opacity="0.1" d="M2930.99 1172.19C2928.76 1182.17 2927.47 1192.34 2927.15 1202.56C2911.99 1205.65 2896.23 1200.59 2881.68 1195.53L2839.9 1181.25C2837.36 1179.62 2834.3 1179.03 2831.33 1179.58C2828.36 1180.13 2825.72 1181.8 2823.94 1184.24C2817.22 1191.22 2807.97 1204.49 2798.68 1212.33C2797.18 1212.18 2795.71 1211.85 2794.28 1211.37C2787.26 1208.44 2788.32 1197.55 2793.37 1191.83C2798.43 1186.11 2805.9 1182.92 2810.5 1176.64C2812.64 1172.92 2815.03 1169.35 2817.67 1165.96C2821.06 1163.05 2825.1 1161.02 2829.44 1160.04C2858.58 1151.43 2889.41 1150.26 2919.12 1156.64C2924.17 1157.76 2929.93 1159.78 2931.44 1164.69C2931.93 1167.19 2931.78 1169.77 2930.99 1172.19Z" fill="black"/>
<path opacity="0.1" d="M3313.17 2133.35C3320.44 2135.78 3328.32 2139.33 3330.8 2146.62L3272.29 2131.73L3241.98 2123.99C3236.63 2122.62 3217.43 2121.05 3213.89 2116.85C3208.84 2110.67 3226.78 2114.93 3230.01 2115.38C3239.81 2116.85 3249.61 2118.37 3259.36 2120.14C3277.75 2123.43 3295.43 2128.85 3313.17 2133.35Z" fill="black"/>
<path opacity="0.1" d="M3335.85 2185.25C3330.8 2181.86 3316.3 2182.26 3310.08 2180.79C3300.99 2178.62 3292.05 2175.73 3283.11 2172.94C3264.97 2167.02 3246.98 2160.29 3228.34 2155.93C3224.91 2155.17 3213.19 2154.97 3213.74 2150.62C3214.3 2146.26 3225.46 2144.75 3228.24 2144.54C3244.76 2143.33 3265.37 2151.07 3280.73 2156.59C3300.3 2163.62 3318.84 2173.26 3335.85 2185.25V2185.25Z" fill="black"/>
<path opacity="0.1" d="M3298.77 2087.08C3280.23 2082.02 3263.4 2070.47 3244.31 2068.25C3239.33 2068.44 3234.44 2066.94 3230.41 2063.99C3228.17 2061.78 3226.61 2058.97 3225.92 2055.89C3238.7 2055.24 3253.55 2060.65 3265.17 2065.77C3271.57 2068.52 3277.72 2071.8 3283.56 2075.59C3287.8 2078.17 3294.17 2085.61 3298.77 2087.08Z" fill="black"/>
<path d="M3652.2 1633.76C3649.06 1654.81 3653.6 1676.28 3664.97 1694.26C3676.35 1712.23 3693.8 1725.49 3714.14 1731.62C3711.66 1743.62 3699.28 1750.25 3690.54 1758.81C3678.22 1770.81 3671.85 1788.78 3657.3 1797.9C3641.08 1808.02 3620.22 1804.07 3601.73 1799.82C3600.05 1799.63 3598.5 1798.82 3597.39 1797.54C3597 1796.93 3596.73 1796.27 3596.58 1795.57C3590.46 1773.14 3586.47 1749.19 3592.74 1726.71C3597.79 1707.58 3609.91 1691.27 3619.61 1674.36C3629.31 1657.45 3630.22 1639.33 3652.2 1633.76Z" fill="#3F3D56"/>
<path d="M3200.51 1343.46C3180.95 1344.89 3161.96 1350.68 3144.94 1360.42C3133.62 1366.9 3122 1375.61 3109.07 1374.04C3101.44 1373.18 3093.91 1368.98 3086.49 1371C3082.3 1372.69 3078.4 1375.02 3074.92 1377.89C3073.15 1379.3 3071.05 1380.23 3068.82 1380.58C3066.59 1380.94 3064.3 1380.71 3062.19 1379.91L3057.13 1449.98C3055.21 1476.61 3053.35 1503.8 3059.71 1529.77C3062.99 1543.04 3070.22 1555.08 3071.03 1568.55C3071.83 1582.02 3070.62 1595.84 3071.58 1609.46C3072.49 1622.06 3075.27 1634.47 3075.98 1647.08C3077.39 1670.87 3071.53 1694.46 3065.87 1717.6C3057.34 1751.72 3052.18 1786.61 3035.56 1817.49C3030.91 1826.04 3025.46 1834.75 3025.46 1844.47C3025.46 1845.69 3025.46 1846.85 3025.76 1848.02C3020.71 1850.8 3016.01 1853.43 3011.72 1856.17C3002.12 1862.39 2991.86 1869.33 2987.92 1880.11C2984.74 1888.87 2986.21 1898.9 2982.37 1907.35C2978.53 1915.81 2969.74 1921.83 2967.82 1930.94C2966.45 1937.58 2969.08 1944.56 2967.82 1951.2C2966.67 1954.63 2965.74 1958.13 2965.04 1961.68C2964.53 1969.27 2970.95 1975.4 2977.31 1979.55C2986.6 1985.68 2996.84 1990.2 3007.63 1992.91L3037.78 1872.93C3065.28 1821.97 3088.16 1768.65 3106.14 1713.6C3111.28 1695.6 3117.89 1678.06 3125.89 1661.15C3131.61 1651.58 3136.67 1641.64 3141.05 1631.38C3145.64 1618.62 3146.1 1604.8 3148.32 1591.33C3150.96 1575.62 3154.93 1560.15 3160.19 1545.11C3165.65 1528.86 3171.96 1512.66 3173.08 1495.6C3174.74 1471.19 3165.9 1445.42 3175.3 1422.84C3179.29 1414.39 3184.48 1406.57 3190.71 1399.61C3203.74 1383.61 3215.61 1366.85 3228.65 1350.85C3221.88 1343.61 3210.61 1342.85 3200.51 1343.46Z" fill="#3F3D56"/>
<g opacity="0.1">
<path opacity="0.1" d="M3342.87 1063.44L3336.55 1063.89L3335.85 1064.4C3338.21 1064.3 3340.56 1063.98 3342.87 1063.44V1063.44Z" fill="black"/>
<path opacity="0.1" d="M3458.46 1168.54C3457.4 1178.61 3455.23 1188.52 3451.99 1198.11C3449.9 1203.93 3448.22 1209.88 3446.94 1215.93C3445.93 1221.8 3445.83 1227.78 3444.92 1233.65C3443.8 1241.26 3441.17 1248.58 3437.19 1255.16C3433.21 1261.74 3427.95 1267.46 3421.73 1271.97C3419.96 1273.42 3417.75 1274.23 3415.47 1274.25C3411.53 1273.8 3409.1 1269.19 3407.64 1265.04C3399.6 1241.8 3401.52 1213.4 3386.72 1194.87C3379.99 1187.39 3371.85 1181.32 3362.77 1177C3359.07 1174.6 3354.91 1173.03 3350.55 1172.39C3344.14 1172.74 3337.98 1174.99 3332.87 1178.87C3322.2 1186.04 3310.37 1191.28 3297.91 1194.36C3291.69 1195.84 3285.22 1195.91 3278.97 1194.56C3272.72 1193.21 3266.85 1190.48 3261.79 1186.57C3254.82 1180.79 3249.71 1172.14 3241.98 1167.63C3234.25 1163.13 3226.17 1163.38 3218.54 1160.29C3213.78 1158.25 3209.53 1155.16 3206.12 1151.25C3202.71 1147.34 3200.22 1142.71 3198.84 1137.71C3198.66 1137.08 3198.53 1136.44 3198.44 1135.79C3197.17 1141.44 3197.31 1147.31 3198.84 1152.9C3200.22 1157.9 3202.71 1162.53 3206.12 1166.44C3209.53 1170.35 3213.78 1173.44 3218.54 1175.48C3226.17 1178.57 3234.76 1178.62 3241.98 1182.82C3249.21 1187.02 3254.82 1195.98 3261.79 1201.75C3266.85 1205.67 3272.72 1208.4 3278.97 1209.74C3285.22 1211.09 3291.69 1211.03 3297.91 1209.55C3310.37 1206.47 3322.2 1201.23 3332.87 1194.06C3337.98 1190.18 3344.14 1187.92 3350.55 1187.58C3354.91 1188.22 3359.07 1189.79 3362.77 1192.19C3371.74 1196.59 3379.75 1202.72 3386.37 1210.21C3401.17 1228.74 3399.25 1257.14 3407.28 1280.38C3408.75 1284.58 3411.17 1289.14 3415.11 1289.59C3417.54 1289.61 3419.89 1288.74 3421.73 1287.16C3427.98 1282.63 3433.25 1276.9 3437.24 1270.29C3441.24 1263.68 3443.86 1256.33 3444.97 1248.69C3445.88 1242.81 3445.98 1236.84 3446.99 1230.97C3448.27 1224.92 3449.95 1218.96 3452.04 1213.15C3456.96 1199.51 3459.24 1185.06 3458.76 1170.57C3458.66 1169.96 3458.56 1169.25 3458.46 1168.54Z" fill="black"/>
</g>
<path d="M3138.82 1574.78L3135.39 1621C3134.88 1627.28 3122.91 1776.73 3034.6 1951.4C2958.82 2101.21 2811.36 2296.32 2532.95 2405.98C2511.22 2414.59 2488.68 2422.62 2465.3 2430.08L2439.23 2348.07C2504.68 2327.43 2567.72 2299.79 2627.27 2265.64C2769.17 2183.53 2879.51 2066.32 2956.45 1915.5C2997.27 1835.2 3026.36 1749.44 3042.84 1660.85H2726.08V1574.78H3138.82Z" fill="#0082FF"/>
<path opacity="0.1" d="M2498.85 2406.04C2777.21 2296.38 2924.72 2101.31 3000.45 1951.5C3088.76 1776.83 3100.78 1627.48 3101.24 1621.1L3104.67 1574.88H3140.04L3136.6 1621.1C3136.15 1627.38 3124.12 1776.83 3035.81 1951.5C2960.04 2101.31 2812.57 2296.38 2534.21 2406.04C2512.49 2414.64 2489.92 2422.69 2466.51 2430.18L2463.08 2419.4C2475.27 2415.05 2487.19 2410.59 2498.85 2406.04Z" fill="white"/>
<path d="M1941.52 2348.07L1915.45 2430.08C1892.04 2422.59 1869.48 2414.54 1847.76 2405.93C1569.4 2296.27 1421.88 2101.21 1346.15 1951.4C1257.84 1776.73 1245.82 1627.38 1245.37 1621L1241.93 1574.78H1654.47V1660.85H1337.66C1354.22 1749.45 1383.4 1835.21 1424.3 1915.5C1501.25 2066.32 1611.53 2183.53 1753.44 2265.59C1812.99 2299.78 1876.05 2327.43 1941.52 2348.07V2348.07Z" fill="#0082FF"/>
<path opacity="0.1" d="M1881.81 2406.04C1603.45 2296.38 1455.93 2101.31 1380.2 1951.5C1291.89 1776.83 1279.87 1627.48 1279.42 1621.1L1275.98 1574.88H1240.62L1244.05 1621.1C1244.51 1627.38 1256.53 1776.83 1344.84 1951.5C1420.62 2101.31 1568.08 2296.38 1846.44 2406.04C1868.17 2414.64 1890.73 2422.69 1914.14 2430.18L1917.57 2419.4C1905.42 2415.05 1893.49 2410.59 1881.81 2406.04Z" fill="white"/>
<path d="M2666.92 3140.9V3605H1713.78V3140.9L1744.09 3100.39C2052.96 2990.53 2115.56 2704.03 2128.04 2590.67C2129.89 2575.01 2130.96 2559.26 2131.22 2543.49H2249.08C2249.34 2559.26 2250.41 2575.01 2252.26 2590.67C2264.94 2704.03 2327.54 2990.63 2636.21 3100.39L2666.92 3140.9Z" fill="#0082FF"/>
<path opacity="0.1" d="M2666.92 3140.9H1713.78V3199.12H2666.92V3140.9Z" fill="black"/>
<path opacity="0.1" d="M1794.61 3100.39C2103.48 2990.53 2166.08 2704.03 2178.56 2590.67C2180.41 2575.01 2181.47 2559.26 2181.74 2543.49H2131.22C2130.96 2559.26 2129.89 2575.01 2128.04 2590.67C2115.36 2704.03 2052.76 2990.63 1744.09 3100.39L1713.78 3140.9V3605H1764.3V3140.9L1794.61 3100.39Z" fill="white"/>
<path opacity="0.1" d="M1568.99 1574.78H1654.47V1660.85H1576.57C1573.5 1632.49 1570.98 1603.81 1568.99 1574.78Z" fill="black"/>
<path opacity="0.1" d="M1941.52 2348.07L1915.45 2430.08C1892.04 2422.59 1869.48 2414.54 1847.76 2405.93C1812.02 2362.2 1780.44 2315.22 1753.44 2265.59C1812.99 2299.78 1876.05 2327.43 1941.52 2348.07Z" fill="black"/>
<path opacity="0.1" d="M2439.18 2348.07C2504.63 2327.43 2567.67 2299.79 2627.22 2265.64C2600.19 2315.27 2568.62 2362.27 2532.9 2406.03C2511.17 2414.64 2488.63 2422.67 2465.25 2430.13L2439.18 2348.07Z" fill="black"/>
<path opacity="0.1" d="M2811.66 1574.78C2809.67 1603.81 2807.15 1632.49 2804.08 1660.85H2726.23V1574.78H2811.66Z" fill="black"/>
<path opacity="0.1" d="M2252.46 2590.67C2211.44 2598.64 2169.27 2598.64 2128.24 2590.67C2130.1 2575.01 2131.16 2559.26 2131.42 2543.49H2249.28C2249.55 2559.26 2250.61 2575.01 2252.46 2590.67V2590.67Z" fill="black"/>
<path d="M1579.1 1432.21C1581.27 2070.42 1854.07 2586.52 2190.38 2586.52C2526.68 2586.52 2799.44 2070.42 2801.66 1432.21H1579.1Z" fill="#0082FF"/>
<path opacity="0.1" d="M1687.71 1432.21H1579.1C1581.27 2070.42 1854.07 2586.52 2190.38 2586.52C2208.58 2586.49 2226.74 2584.95 2244.69 2581.91C1933.79 2529.87 1689.78 2035.69 1687.71 1432.21Z" fill="white"/>
<path d="M2514.51 3318.55H1866.2V3485.62H2514.51V3318.55Z" fill="#3F3D56"/>
<path opacity="0.1" d="M1896.51 3341.33H2514.51V3318.55H1866.2V3485.62H1896.51V3341.33Z" fill="white"/>
<path d="M1233.34 2048.4C1221.67 2044.5 1152.97 1990.03 1147.76 1965.37C1142.56 1940.72 1184.09 1711.02 1184.09 1711.02C1184.09 1711.02 1180.25 1711.02 1173.98 1710.26V1706.56L1182.52 1404.82C1182.52 1404.82 1217.53 1202.31 1151.4 1214.11C1085.27 1225.9 1126.75 1404.82 1126.75 1404.82C1126.75 1404.82 1119.22 1495.65 1113.92 1522.89C1108.86 1549.16 1085.73 1656.19 1101.49 1689.45C1102.06 1690.63 1102.71 1691.78 1103.41 1692.89V1692.89C1103.41 1692.89 1106.03 1807.06 1077.49 1822.65C1050.26 1837.49 1038.94 1912.16 1037.98 1918.84L1036.52 1918.24C1028.39 1913.14 1021.25 1906.6 1015.45 1898.95C1014.85 1898.19 1014.39 1897.38 1013.84 1896.57C1032.42 1875.61 1042.44 1848.4 1041.89 1820.37C1041.34 1792.34 1030.25 1765.55 1010.86 1745.34C1001.84 1735.95 991.255 1728.21 979.585 1722.46C979.245 1712.79 976.96 1703.28 972.866 1694.51C959.731 1666.36 886.983 1629.56 835.302 1628.7C811.457 1627.99 791.906 1634.77 784.783 1653.45C781.146 1662.92 782.257 1673.71 780.742 1683.53C777.71 1703.78 764.727 1719.62 748.056 1732.23C741.324 1724.7 734.046 1717.68 726.282 1711.22C709.409 1698.26 675.763 1655.53 675.763 1655.53C675.763 1655.53 570.734 1546.53 562.954 1516.66C555.174 1486.79 450.245 1307.41 426.906 1338.65C403.566 1369.89 507.282 1506.03 507.282 1506.03C507.282 1506.03 526.984 1555.49 542.14 1572.2C557.295 1588.9 673.489 1758 673.489 1758L679.047 1769.54C654.494 1782.5 632.064 1799.01 624.132 1824.73C612.513 1862.6 637.924 1900.67 655.505 1936.11C689.757 2005.27 694.657 2093.46 650.453 2156.64C610.846 2212.43 542.14 2238.96 477.829 2262.15C508.888 2286.59 547.472 2299.43 586.95 2298.45C572.098 2341.59 519.457 2355.86 474.596 2363.86C498.138 2386.54 531.834 2394.8 564.166 2399.81C580.001 2402.51 596.047 2403.78 612.109 2403.6H616.049L619.99 2403.3C625.465 2402.94 630.915 2402.24 636.307 2401.22C659.647 2396.47 682.33 2383.71 694.253 2363.05C704.357 2345.38 707.893 2321.28 726.231 2312.42C731.007 2310.26 736.152 2309.04 741.387 2308.83H740.831C744.267 2308.83 747.803 2308.83 751.238 2308.83L827.674 2309.59C830.856 2309.59 834.14 2309.59 837.424 2309.59C858.996 2309.08 882.032 2305.34 892.995 2287.46C897.505 2278.79 899.878 2269.15 899.916 2259.37C901.533 2235.12 899.916 2210.16 900.573 2185.7C907.09 2230.2 913.91 2299.56 897.693 2325.18C884.519 2344.59 868.55 2361.94 850.306 2376.67C845.718 2380.53 841.521 2384.84 837.778 2389.53C835.302 2391.3 833.837 2392.26 833.837 2392.26L832.271 2396.97C826.513 2405.72 822.34 2415.42 819.944 2425.63C819.063 2428.25 818.736 2431.02 818.984 2433.78C820.753 2437.37 806.355 2452.21 810.548 2458.43C774.578 2500.71 767.758 2564.75 767.758 2564.75L702.083 2664.69C668.337 2753.54 617.817 2762.66 617.817 2762.66C617.817 2762.66 499.148 2682.87 495.915 2678.97C492.682 2675.07 447.315 2655.58 447.315 2655.58C441.966 2646.18 433.801 2638.7 423.975 2634.21C408.416 2627.73 407.102 2603.84 407.102 2603.84C405.182 2547.39 372.092 2543.08 372.092 2543.08C345.418 2540.81 325.059 2545.56 309.398 2554.27L304.649 2554.63C281.714 2556.5 254.13 2558.58 223.819 2560.6C139.502 2566.17 119.446 2620.9 119.446 2620.9C119.446 2620.9 109.09 2632.59 122.679 2645.25C136.269 2657.91 223.263 2645.25 226.951 2644.95C220.321 2645.67 213.616 2645.2 207.147 2643.58C220.838 2643.07 239.682 2642.57 255.747 2642.57H259.637C258.625 2651.1 258.136 2659.69 258.172 2668.29C258.172 2684.49 302.881 2694.87 302.881 2694.87L439.03 2816.37C439.03 2816.37 524.61 2854.7 579.069 2909.83C633.529 2964.96 681.674 2917.37 681.674 2917.37C739.316 2903.1 905.17 2702.16 905.322 2701.95C905.322 2707.83 908.808 2903.25 915.426 2942.49C915.689 2944.48 916.18 2946.43 916.891 2948.31C924.67 2965.17 914.264 3011.24 909.767 3030.68C906.9 3046.95 905.799 3063.48 906.484 3079.99C906.484 3079.99 844.295 3317.94 849.447 3338.85C854.6 3359.76 815.751 3456.91 815.751 3456.91V3537.92L822.521 3537.56C821.64 3538.87 820.831 3540.22 820.096 3541.61L819.641 3542.47C819.641 3542.47 861.117 3551.54 889.004 3548.96C916.891 3546.37 964.783 3570.47 964.783 3570.47C964.783 3570.47 980.999 3578.17 1030.91 3581.41C1080.83 3584.65 1080.83 3559.33 1080.83 3559.33C1075.12 3524.86 996.256 3513.31 993.831 3512.96C987.466 3508.96 981.505 3504.61 976.604 3500.86L975.594 3500.05C975.924 3499.29 976.211 3498.51 976.453 3497.72C984.889 3463.29 938.21 3448.36 938.21 3448.36V3439.95C968.521 3424.36 974.533 3317.33 974.533 3317.33C974.533 3317.33 1020 3184.99 1026.37 3162.92C1032.73 3140.85 1026.37 3107.79 1026.37 3107.79L1030.91 3079.23C1030.91 3079.23 1040.66 3059.79 1040.66 3055.89C1041.92 3046.01 1045.72 3036.63 1051.68 3028.65C1058.8 3020.2 1043.9 3000.1 1043.9 3000.1L1056.88 2966.38V2929.37L1087.19 2795.11C1087.19 2795.11 1118.97 2638.72 1107.95 2587.53C1096.94 2536.35 1120.94 2510.33 1120.94 2510.33C1118.77 2511.47 1116.55 2512.48 1114.27 2513.37C1117.3 2506.34 1119.92 2499.14 1122.1 2491.8L1190.3 2500.25V2501.27H1214.9C1214.9 2501.27 1207.12 2405.07 1207.12 2366.29C1207.12 2327.51 1233.34 2188.34 1233.34 2188.34C1233.34 2188.34 1245.01 2052.3 1233.34 2048.4ZM930.581 1936.11C930.581 1939.91 930.228 1943.85 929.975 1947.9L928.611 1949.98L926.085 1947.85L923.003 1952.66L922.094 1953.12C915.425 1949.68 911.99 1929.98 907.191 1934.24L906.534 1934.79C905.473 1933.58 904.412 1933.22 903.301 1934.24L902.291 1935.1C902.291 1933.63 902.291 1932.11 902.291 1930.59C911.533 1932.97 921.038 1934.18 930.581 1934.18C930.632 1934.84 930.581 1935.5 930.581 1936.11ZM1157.41 2384.06H1158.88L1156.45 2390.44C1156.76 2388.31 1157.06 2386.24 1157.41 2384.06V2384.06ZM908.403 3532.15L899.108 3529.82L904.16 3528.96L908.858 3532.05L909.414 3532.45L908.403 3532.15ZM1003.38 3518.53C1000.3 3516.91 997.165 3515.03 994.134 3513.11C995.145 3513.67 999.136 3515.74 1003.38 3518.53V3518.53Z" fill="url(#paint1_linear)"/>
<path d="M1190.96 2288.43L1129.78 2448.21H1144.63L1087.09 2494.18L1190.96 2507.14V2288.43Z" fill="#F86D70"/>
<path opacity="0.1" d="M1190.96 2288.43L1129.78 2448.21L1114.37 2444.06L1087.09 2494.18L1190.96 2507.14V2288.43Z" fill="black"/>
<path d="M1095.02 2390.64H1190.96L1226.17 2100.29H1095.02V2390.64Z" fill="#F86D70"/>
<path opacity="0.1" d="M1095.02 2390.64H1190.96L1226.17 2100.29H1095.02V2390.64Z" fill="black"/>
<path d="M907.646 2169.05L928.359 2165.55L975.948 2157.45C975.948 2157.45 1118.87 2125.15 1148.37 2122.52C1166.24 2120.15 1183.67 2115.17 1200.1 2107.74C1207.83 2104.39 1212.73 2101.86 1212.73 2101.86L1161.25 2007.65L1081.38 1948.31C1081.38 1948.31 1030.86 1937.53 1009.49 1908.06C1004.72 1901.72 1001.62 1894.28 1000.46 1886.43C999.306 1878.57 1000.14 1870.55 1002.87 1863.1C1015.91 1822.6 925.025 1901.83 925.025 1901.83C925.025 1901.83 925.883 1920.82 925.025 1945.02C925.025 1949.78 924.57 1954.74 924.216 1959.8C924.216 1963.14 923.762 1966.49 923.408 1969.93C921.185 1993.98 916.638 2018.73 907.646 2033.52C885.67 2069.66 907.646 2169.05 907.646 2169.05Z" fill="#FBBEBE"/>
<path opacity="0.1" d="M925.024 1947.04H927.045C930.683 1947.04 933.613 1939.3 937.149 1938.94C965.591 1936.21 991.558 1930.24 1009.59 1910.04C1004.84 1903.7 1001.74 1896.27 1000.58 1888.43C999.428 1880.58 1000.25 1872.57 1002.98 1865.13C1016.01 1824.63 925.125 1903.81 925.125 1903.81C925.125 1903.81 926.085 1922.84 925.024 1947.04Z" fill="black"/>
<path d="M814.387 1832.22C814.38 1846.8 817.24 1861.23 822.803 1874.7C828.366 1888.16 836.522 1900.4 846.806 1910.71C857.091 1921.01 869.301 1929.19 882.739 1934.76C896.178 1940.34 910.581 1943.2 925.125 1943.2C928.762 1943.2 932.349 1943.2 935.936 1942.69C957.274 1940.59 977.545 1932.33 994.289 1918.91C1011.03 1905.49 1023.53 1887.49 1030.26 1867.09C1036.99 1846.69 1037.67 1824.77 1032.22 1804C1026.76 1783.22 1015.4 1764.47 999.517 1750.04C983.635 1735.61 963.914 1726.1 942.747 1722.68C921.581 1719.26 899.879 1722.08 880.276 1730.78C860.673 1739.48 844.012 1753.7 832.316 1771.7C820.62 1789.71 814.392 1810.73 814.387 1832.22Z" fill="#FBBEBE"/>
<path d="M780.388 1663.78C776.751 1673.2 777.862 1683.73 776.397 1693.7C770.991 1729.7 734.466 1751.27 701.427 1766.35C668.387 1781.44 631.104 1799.31 620.596 1834.09C609.078 1871.71 634.236 1909.43 651.716 1944.72C685.766 2013.47 690.616 2101.15 646.664 2164.03C607.613 2219.73 539.563 2246.15 475.505 2269.34C506.335 2293.65 544.653 2306.43 583.869 2305.49C569.168 2348.37 516.88 2362.6 472.322 2370.49C495.713 2393.07 529.207 2401.28 561.287 2406.24C584.677 2409.88 608.673 2412.26 632.013 2407.55C655.353 2402.85 677.481 2390.14 689.504 2369.58C699.608 2352.02 703.043 2328.07 721.281 2319.21C729.513 2315.96 738.382 2314.66 747.197 2315.41L822.976 2316.22C846.568 2316.22 874.505 2314.4 886.68 2294.2C891.171 2285.57 893.527 2275.98 893.551 2266.25C896.835 2216.43 887.286 2163.78 907.747 2118.32C913.91 2104.6 874.354 2082.88 878.496 2068.35C892.742 2018.38 896.329 1979.04 896.178 1927.05C896.178 1886.8 922.296 1852.12 943.868 1818.15C965.44 1784.17 983.475 1741.29 966.45 1704.84C947.253 1664.19 803.071 1605.1 780.388 1663.78Z" fill="#3F3D56"/>
<path d="M881.275 3517.57L900.573 3530.37L903.554 3532.35L904.11 3532.7L926.995 3547.89L980.444 3556.9L1027.43 3553.66C1027.43 3553.66 1040.97 3525.31 1019.7 3525.97C1012.89 3525.62 1006.25 3523.7 1000.3 3520.35L997.368 3518.88C994.286 3517.26 991.205 3515.44 988.173 3513.52C981.859 3509.52 975.897 3505.16 971.098 3501.47C964.025 3496 959.327 3491.85 959.327 3491.85L881.275 3517.57Z" fill="#FBBEBE"/>
<path opacity="0.1" d="M900.826 3530.37L903.806 3532.35L904.362 3532.7L927.247 3547.89L980.696 3556.9L1027.68 3553.66C1027.68 3553.66 1041.22 3525.31 1019.95 3525.97C1013.14 3525.62 1006.5 3523.7 1000.55 3520.35C1004.29 3523.29 1007.42 3526.48 1007.72 3529.16C1008.58 3536.4 972.967 3549.41 972.967 3549.41L922.751 3536.1C922.751 3536.1 914.213 3533.67 902.543 3530.63L901.432 3530.32L900.826 3530.37Z" fill="black"/>
<path d="M814.943 3542.73C814.943 3542.73 856.116 3551.74 883.801 3549.16C911.485 3546.58 959.175 3570.47 959.175 3570.47C959.175 3570.47 975.291 3578.07 1024.85 3581.31C1074.41 3584.55 1074.41 3559.33 1074.41 3559.33C1068.75 3525.06 990.446 3513.77 988.022 3513.26C988.981 3513.77 993.073 3515.84 997.216 3518.63C1002.77 3522.27 1008.78 3527.03 1009.24 3530.88C1010.1 3538.07 974.482 3551.13 974.482 3551.13L924.266 3537.87C924.266 3537.87 915.729 3535.39 904.059 3532.35H902.947C885.644 3527.63 868.062 3523.99 850.306 3521.46C828.684 3519.14 817.62 3537.56 815.347 3541.72C815.182 3542.04 815.047 3542.38 814.943 3542.73V3542.73Z" fill="#3F3D56"/>
<path d="M165.974 2632.29L187.849 2649.1C187.849 2649.1 194.214 2648.79 203.712 2648.49H206.743C220.333 2647.98 239.075 2647.48 254.989 2647.48C265.276 2647.01 275.583 2647.59 285.755 2649.2C296.667 2653.05 316.067 2586.62 316.067 2586.62L294.141 2581.56L286.866 2579.84L281.815 2578.62L263.981 2574.42L209.926 2580.6L171.935 2605.1L165.974 2632.29Z" fill="#FBBEBE"/>
<path opacity="0.1" d="M165.974 2632.29L187.849 2649.1C187.849 2649.1 194.214 2648.79 203.712 2648.49C199.354 2646.81 195.76 2643.58 193.608 2639.43C179.463 2600.09 249.634 2583.28 249.634 2583.28L282.32 2581.86L288.685 2581.56H293.737L286.462 2579.84L281.41 2578.62L263.577 2574.42L209.522 2580.6L171.531 2605.1L165.974 2632.29Z" fill="black"/>
<path d="M122.831 2650.06C136.067 2662.31 222.757 2650.06 226.395 2649.76C219.816 2650.5 213.156 2650.04 206.743 2648.39C203.568 2647.82 200.559 2646.55 197.937 2644.66C195.315 2642.78 193.146 2640.33 191.587 2637.5C177.442 2598.12 247.613 2581.36 247.613 2581.36L280.299 2579.94L286.614 2579.64L366.08 2576.19L369.92 2554.27C369.92 2554.27 344.104 2556.7 303.588 2559.94C280.804 2561.82 253.069 2563.89 223.111 2565.87C139.401 2571.44 119.496 2625.86 119.496 2625.86C119.496 2625.86 109.342 2637.5 122.831 2650.06Z" fill="#3F3D56"/>
<path d="M1095.07 1699.78C1095.61 1700.98 1096.25 1702.13 1096.99 1703.22L1116.29 1731.57L1166.51 1736.64L1167.06 1716.69L1175.5 1416.57C1175.5 1416.57 1210.26 1215.27 1144.58 1226.87C1078.91 1238.46 1120.13 1416.57 1120.13 1416.57C1120.13 1416.57 1112.65 1506.89 1107.4 1534.02C1102.3 1560.25 1079.41 1666.87 1095.07 1699.78Z" fill="#FBBEBE"/>
<path d="M982.363 2445.22L996.66 2469.72L1028.64 2524.55C1028.64 2524.55 1086.63 2545.87 1101.49 2529.62C1109.62 2520.76 1118.41 2489.82 1124.57 2463.8C1129.63 2442.74 1133.01 2424.97 1133.01 2424.97L982.363 2445.22Z" fill="#FBBEBE"/>
<path opacity="0.1" d="M982.363 2445.22L996.66 2469.72C997.557 2468.95 998.37 2468.09 999.085 2467.14C1015.25 2446.49 1086.43 2462.74 1124.57 2464.05C1129.63 2442.99 1133.01 2425.22 1133.01 2425.22L982.363 2445.22Z" fill="black"/>
<path opacity="0.1" d="M254.989 2647.38C265.276 2646.91 275.584 2647.49 285.755 2649.1C296.667 2652.95 316.067 2586.52 316.067 2586.52L286.867 2579.64L366.333 2576.19L370.173 2554.27C370.173 2554.27 344.357 2556.7 303.841 2559.94C295.469 2564.77 287.999 2571.03 281.764 2578.42L280.552 2579.94C263.628 2600.75 257.363 2627.58 254.989 2647.38Z" fill="black"/>
<path opacity="0.1" d="M881.275 3517.57L903.554 3532.35C936.795 3526.32 967.157 3516.86 970.744 3501.97C970.761 3501.74 970.761 3501.5 970.744 3501.26C963.672 3495.8 958.973 3491.65 958.973 3491.65L881.275 3517.57Z" fill="black"/>
<path opacity="0.1" d="M815.397 3541.87C844.753 3540.4 874.001 3537.26 902.998 3532.45C885.68 3527.69 868.081 3524.02 850.306 3521.46C828.735 3519.14 817.671 3537.56 815.397 3541.87Z" fill="black"/>
<path d="M257.414 2672.94C257.414 2689.09 301.82 2699.42 301.82 2699.42L437.06 2820.07C437.06 2820.07 522.033 2858.14 576.089 2912.97C630.144 2967.8 677.834 2920.72 677.834 2920.72C735.123 2906.54 900.118 2706.51 900.118 2706.51C900.118 2706.51 903.958 2934.94 911.687 2951.7C919.417 2968.46 909.111 3014.28 904.615 3033.67C901.778 3049.84 900.694 3066.27 901.381 3082.67C901.381 3082.67 839.597 3319.46 844.749 3340.12C849.902 3360.77 811.255 3457.57 811.255 3457.57V3538.22C811.255 3538.22 962.56 3532.4 970.896 3498.23C979.231 3464.05 932.956 3449.17 932.956 3449.17V3440.76C963.267 3425.27 968.976 3318.85 968.976 3318.85C968.976 3318.85 1014.09 3187.22 1020.51 3165.3C1026.92 3143.38 1020.51 3110.42 1020.51 3110.42L1025 3082.07C1025 3082.07 1034.65 3062.68 1034.65 3058.83C1035.91 3049 1039.69 3039.67 1045.61 3031.74C1052.69 3023.34 1037.88 3003.34 1037.88 3003.34L1050.77 2969.77V2933.02L1081.08 2799.46C1081.08 2799.46 1112.65 2643.93 1101.69 2592.95C1090.73 2541.97 1114.57 2516.2 1114.57 2516.2C1062.89 2543.34 1036.82 2482.94 1028.29 2456.97C1026.11 2450.28 1025.05 2445.83 1025.05 2445.83C1025.05 2445.83 954.073 2419.6 887.994 2425.88C874.574 2426.97 861.348 2429.78 848.64 2434.23C775.235 2460.71 763.666 2570.37 763.666 2570.37L698.648 2669.75C665.154 2758.15 614.938 2767.16 614.938 2767.16C614.938 2767.16 497.127 2687.83 493.692 2683.93C490.257 2680.03 445.396 2660.69 445.396 2660.69C440.091 2651.34 431.977 2643.89 422.207 2639.43C406.748 2632.95 405.486 2609.05 405.486 2609.05C403.566 2552.91 370.728 2548.3 370.728 2548.3C256.757 2538.78 257.414 2656.84 257.414 2672.94Z" fill="#3F3D56"/>
<path d="M912.849 2357.48H982.363V2141.35H912.849V2357.48Z" fill="#F86D70"/>
<path opacity="0.1" d="M912.849 2357.48H982.363V2141.35H912.849V2357.48Z" fill="black"/>
<path opacity="0.1" d="M1095.02 1699.32C1095.01 1699.47 1095.01 1699.63 1095.02 1699.78C1095.56 1700.98 1096.2 1702.13 1096.94 1703.22L1116.24 1731.57L1166.46 1736.64L1167.01 1716.69C1151.35 1715.47 1115.68 1711.17 1095.02 1699.32Z" fill="black"/>
<path d="M1096.99 1703.22C1096.99 1703.22 1099.57 1816.73 1071.23 1832.22C1042.89 1847.71 1031.87 1928.41 1031.87 1928.41C1031.87 1928.41 1117.75 1985.02 1136.9 2009.92C1156.05 2034.83 1200 2094.17 1190.96 2108.34C1181.91 2122.52 1212.88 2187.07 1212.88 2187.07C1212.88 2187.07 1156.2 2303.21 1169.08 2347.1C1181.96 2391 1183.23 2507.09 1183.23 2507.09H1207.73C1207.73 2507.09 1200 2411.6 1200 2372.87C1200 2334.14 1225.71 2196.08 1225.71 2196.08C1225.71 2196.08 1237.33 2060.6 1225.71 2056.75C1214.09 2052.91 1145.89 1998.68 1140.74 1974.13C1135.59 1949.58 1176.81 1720.99 1176.81 1720.99C1176.81 1720.99 1124.02 1718.71 1096.99 1703.22Z" fill="#F86D70"/>
<path opacity="0.1" d="M911.535 2121.3C913.885 2137.1 919.625 2152.2 928.358 2165.55L975.947 2157.45C975.947 2157.45 1118.87 2125.15 1148.37 2122.52C1166.24 2120.16 1183.67 2115.17 1200.1 2107.74C1188.78 2067.52 1166.67 2031.19 1136.19 2002.68L1118.06 1985.83C1091.33 1960.96 1060.36 1941.12 1026.62 1927.25C1028.74 1929.02 1178.68 2057.31 1145.84 2082.47C1113.01 2107.64 1024.6 2046.38 1024.6 2046.38L924.064 1959.8L920.427 1956.66L914.617 1965.73C917.573 1966.94 920.457 1968.33 923.256 1969.88C957.519 1988.72 982.946 2020.39 993.982 2057.97C1014.64 2127.58 911.535 2121.3 911.535 2121.3Z" fill="black"/>
<path d="M880.618 2443.9C880.618 2443.9 975.897 2496.81 999.035 2467.14C1004.09 2460.61 1014.75 2457.78 1028.03 2457.02C1025.86 2450.33 1024.8 2445.88 1024.8 2445.88C1024.8 2445.88 953.82 2419.65 887.741 2425.93C883.396 2436.87 880.618 2443.9 880.618 2443.9Z" fill="#444053"/>
<path d="M924.468 1956.76L1028.64 2046.58C1028.64 2046.58 1116.69 2108.04 1149.88 2082.68C1183.08 2057.31 1030.61 1927.4 1030.61 1927.4C1064.28 1941.31 1095.22 1961.09 1122 1985.83L1140.13 2002.68C1187.82 2046.98 1198.59 2046.98 1200.2 2112.09C1200.61 2128.14 1195.15 2151.18 1190.96 2155.33C1175.5 2170.51 1164.69 2280.83 1167.06 2293.74C1169.44 2306.65 1138.27 2418.08 1148.37 2449.07C1158.47 2480.05 1022.07 2433.58 998.984 2463.29C975.897 2493.01 880.618 2440.06 880.618 2440.06C880.618 2440.06 933.41 2304.53 946.293 2295.51C959.175 2286.5 974.634 2216.79 946.293 2184.54C917.951 2152.29 915.425 2121.3 915.425 2121.3C915.425 2121.3 1018.48 2127.68 997.822 2058.07C992.009 2037.89 981.924 2019.21 968.255 2003.29C954.585 1987.37 937.651 1974.59 918.608 1965.83L924.468 1956.76Z" fill="#E8E8F0"/>
<path opacity="0.1" d="M1063.5 2185.2C1063.5 2185.2 1023.54 2260.68 971.855 2280.28C970.188 2280.88 968.572 2281.44 966.804 2281.95C912.849 2298.4 1067.54 2208.59 1063.5 2185.2Z" fill="black"/>
<path d="M504.655 1517.37C504.655 1517.37 523.953 1566.42 539.412 1583.18C554.871 1599.94 669.448 1767.72 669.448 1767.72L679.148 1787.97L687.483 1805.24L760.888 1797.49L765.939 1767.82L763.11 1764.38C755.735 1755.52 735.628 1731.72 722.139 1721.35C705.418 1708.49 671.923 1665.91 671.923 1665.91C671.923 1665.91 567.652 1557.46 559.922 1527.8C552.193 1498.13 447.871 1320.22 424.733 1351C401.596 1381.79 504.655 1517.37 504.655 1517.37Z" fill="#FBBEBE"/>
<g opacity="0.1">
<path opacity="0.1" d="M717.643 2315.41C708.832 2314.65 699.963 2315.93 691.727 2319.16C673.54 2328.02 670.105 2351.96 660.001 2369.53C648.179 2390.09 625.648 2402.79 602.459 2407.5C597.85 2408.4 593.195 2409.04 588.516 2409.43C603.285 2410.87 618.182 2410.22 632.771 2407.5C655.959 2402.79 678.491 2390.09 690.312 2369.53C700.416 2351.96 703.851 2328.02 722.038 2319.16C726.813 2317 731.961 2315.8 737.194 2315.61L717.643 2315.41Z" fill="black"/>
<path opacity="0.1" d="M897.087 1927.05C897.087 1886.8 923.206 1852.12 944.727 1818.15C966.248 1784.18 984.334 1741.29 967.309 1704.84C952.759 1673.71 865.058 1631.94 814.438 1640.19C863.997 1646.62 925.075 1679.33 936.997 1704.84C954.022 1741.29 935.936 1784.18 914.415 1818.15C892.894 1852.12 866.675 1886.8 866.776 1927.05C866.776 1978.99 863.29 2018.18 849.044 2068.35C844.952 2082.78 884.407 2104.6 878.345 2118.27C857.834 2163.83 867.432 2216.38 864.149 2266.2C864.08 2275.93 861.708 2285.51 857.228 2294.15C847.124 2310.8 826.411 2315.11 806.254 2316.02H823.885C847.427 2316.02 875.364 2314.2 887.539 2294C892.02 2285.36 894.392 2275.78 894.46 2266.05C897.744 2216.23 888.145 2163.63 908.656 2118.12C914.819 2104.45 875.263 2082.68 879.355 2068.2C893.601 2018.38 897.188 1978.99 897.087 1927.05Z" fill="black"/>
</g>
<path opacity="0.1" d="M679.147 1787.87L687.483 1805.13L760.887 1797.39L765.939 1767.72L763.11 1764.28C755.28 1768.13 696.627 1796.43 679.147 1787.87Z" fill="black"/>
<path opacity="0.1" d="M950.183 1981.93C950.183 1981.93 932.148 1953.58 921.842 1961.27C911.536 1968.97 907.545 1938.03 901.634 1943.2C895.723 1948.36 878.496 1962.74 871.323 1942.64C865.715 1926.64 804.688 1825.44 779.933 1784.73C773.568 1774.2 769.577 1767.72 769.577 1767.72C769.577 1767.72 700.063 1802.55 683.341 1790.96V1815.46L697.486 1816.78L773.265 1958.54C773.265 1958.54 797.11 1996.56 795.493 2009.82C793.877 2023.09 826.057 2081.16 831.21 2085C836.363 2088.85 891.833 2153.4 891.833 2153.4C891.833 2153.4 920.175 2292.78 895.673 2331.51C871.171 2370.24 828.735 2398.59 828.735 2398.59C828.735 2398.59 815.954 2436.01 817.823 2439.9C819.692 2443.8 802.97 2460.56 810.7 2465.72C818.429 2470.89 828.735 2506.99 828.735 2506.99C828.735 2506.99 864.806 2448.92 884.306 2439.9C903.806 2430.89 928.763 2312.12 928.763 2312.12C928.763 2312.12 935.886 2242.15 936.442 2196.99C936.997 2151.83 934.724 1981.93 950.183 1981.93Z" fill="black"/>
<path d="M946.293 1981.93C946.293 1981.93 928.308 1953.58 918.002 1961.27C907.696 1968.97 903.655 1938.03 897.794 1943.2C891.934 1948.36 874.707 1962.74 867.483 1942.64C861.825 1926.64 800.798 1825.44 776.094 1784.73L765.737 1767.72C765.737 1767.72 696.223 1802.55 679.451 1790.96V1815.46L693.647 1816.78L769.425 1958.54C769.425 1958.54 793.321 1996.56 791.654 2009.82C789.987 2023.09 821.965 2081.16 827.371 2085C832.776 2088.85 887.994 2153.4 887.994 2153.4C887.994 2153.4 916.335 2292.78 891.884 2331.51C878.967 2350.96 863.254 2368.4 845.255 2383.25C830.135 2395.75 819.493 2412.85 814.943 2431.96C814.066 2434.56 813.756 2437.32 814.034 2440.06C815.903 2443.9 799.181 2460.71 806.911 2465.88C814.64 2471.04 825.047 2507.29 825.047 2507.29C825.047 2507.29 861.118 2449.22 880.618 2440.21C900.118 2431.2 925.125 2312.42 925.125 2312.42C925.125 2312.42 932.198 2242.46 932.804 2197.3C933.41 2152.14 931.137 1981.93 946.293 1981.93Z" fill="#F86D70"/>
<path opacity="0.1" d="M769.88 2569.11C769.88 2569.11 823.986 2579.23 845.659 2594.88C867.331 2610.52 763.262 2570.37 763.262 2570.37L769.88 2569.11Z" fill="black"/>
<path opacity="0.1" d="M899.967 2706.51C899.967 2706.51 956.397 2753.65 946.293 2796.22C936.189 2838.8 910.121 2945.93 910.121 2945.93L899.967 2706.51Z" fill="black"/>
<path opacity="0.1" d="M406.445 2615.89C406.445 2615.89 326.928 2624.59 332.081 2634.92C337.234 2645.25 406.445 2625.4 406.445 2625.4V2615.89Z" fill="black"/>
<path opacity="0.1" d="M1017.02 3007.85C1017.02 3007.85 1022.07 3014.28 992.568 3007.85C963.065 3001.42 984.839 2981.57 984.839 2981.57L1017.02 3007.85Z" fill="black"/>
<path opacity="0.1" d="M1006.92 3096.9C1006.92 3096.9 966.5 3103.33 944.828 3096.9C923.155 3090.47 1006.92 3096.9 1006.92 3096.9Z" fill="black"/>
<path opacity="0.1" d="M923.761 3445.32C923.761 3445.32 916.688 3437.57 881.274 3451.75C845.86 3465.93 831.715 3466.58 821.409 3461.88C811.103 3457.17 923.761 3445.32 923.761 3445.32Z" fill="black"/>
<path opacity="0.1" d="M963.065 2604.9L912.849 2674.92C912.849 2674.92 939.877 2613.61 963.065 2604.9Z" fill="black"/>
<path opacity="0.1" d="M865.462 1961.27C865.462 1961.27 863.29 1984.51 830.907 1993.57C798.524 2002.63 792.361 2009.97 792.361 2009.97" fill="black"/>
<path opacity="0.1" d="M781.297 1792.83C781.297 1792.83 738.558 1823.21 693.95 1816.78Z" fill="black"/>
<path opacity="0.1" d="M813.832 2443.25C813.832 2443.25 826.31 2451.09 856.267 2416.77Z" fill="black"/>
<path opacity="0.1" d="M1124.98 2079.28C1126.19 2073.01 1121.85 2067.18 1117.75 2062.27L1109.37 2052.15C1107.73 2050.07 1105.88 2048.18 1103.86 2046.48C1098.81 2042.58 1092.34 2041.41 1087.09 2037.92" fill="black"/>
<defs>
<linearGradient id="paint0_linear" x1="3439.46" y1="2870.14" x2="3439.46" y2="833.387" gradientUnits="userSpaceOnUse">
<stop stop-color="#808080" stop-opacity="0.25"/>
<stop offset="0.54" stop-color="#808080" stop-opacity="0.12"/>
<stop offset="1" stop-color="#808080" stop-opacity="0.1"/>
</linearGradient>
<linearGradient id="paint1_linear" x1="200681" y1="1.26897e+06" x2="450202" y2="1.26897e+06" gradientUnits="userSpaceOnUse">
<stop stop-color="#808080" stop-opacity="0.25"/>
<stop offset="0.54" stop-color="#808080" stop-opacity="0.12"/>
<stop offset="1" stop-color="#808080" stop-opacity="0.1"/>
</linearGradient>
</defs>
</svg>
